<svg width="512" height="368" viewBox="0 0 512 368" fill="none" xmlns="http://www.w3.org/2000/svg">
<g clip-path="url(#clip0_19_626)">
<path d="M318.722 367.804C323.756 356.971 328.786 345.977 330.971 334.239C333.156 322.501 332.239 309.762 325.982 299.58C319.724 289.399 307.403 282.495 295.646 284.797C285.988 286.687 278.234 294.265 273.694 302.964C269.153 311.664 267.332 321.476 265.566 331.122C264.995 320.163 264.391 309.028 260.737 298.676C257.083 288.324 249.888 278.677 239.634 274.672C229.38 270.666 216.041 273.816 210.636 283.377C203.022 296.848 213.118 315.743 204.363 328.507C202.861 315.704 189.422 305.588 176.65 307.647C163.878 309.706 154.327 323.528 156.954 336.149C158.518 343.66 163.661 350.048 169.81 354.663C175.959 359.278 183.111 364.627 190.185 367.652L318.722 367.804Z" fill="#F2F2F2"/>
<path d="M163.66 316.693C173.806 320.226 184.045 323.799 193.307 329.323C201.608 334.273 209 340.939 213.669 349.475C216.227 354.054 217.746 359.136 218.118 364.364C218.185 365.457 219.902 365.465 219.834 364.364C219.234 354.629 214.472 345.72 207.879 338.675C200.649 330.95 191.281 325.675 181.608 321.581C175.873 319.154 169.996 317.092 164.116 315.044C163.072 314.68 162.622 316.332 163.66 316.693Z" fill="white"/>
<path d="M222.18 276.369C228.414 286.715 233.405 297.755 237.052 309.261C240.707 320.764 243.009 332.65 243.912 344.681C244.412 351.416 244.466 358.177 244.075 364.919C244.011 366.018 245.728 366.015 245.792 364.919C246.484 352.763 245.746 340.568 243.591 328.583C241.44 316.6 237.905 304.905 233.057 293.731C230.335 287.455 227.197 281.366 223.662 275.506C223.544 275.318 223.356 275.184 223.14 275.131C222.923 275.079 222.695 275.112 222.503 275.224C222.311 275.336 222.169 275.518 222.109 275.731C222.049 275.945 222.075 276.174 222.18 276.369Z" fill="white"/>
<path d="M306.185 286.191C297.369 305.928 291.164 326.722 287.728 348.052C286.763 354.043 286.016 360.064 285.487 366.114C285.391 367.21 287.108 367.203 287.203 366.114C289.072 344.832 293.689 323.878 300.939 303.773C302.977 298.121 305.219 292.548 307.667 287.054C308.112 286.057 306.633 285.186 306.185 286.191Z" fill="white"/>
<path d="M60.6843 366.525C43.1 361.966 27.5614 351.656 16.5595 337.249C5.5576 322.842 -0.270525 305.172 0.00938782 287.071C0.0791235 282.561 0.55507 277.957 2.45793 273.864C4.36079 269.771 7.89532 266.232 12.3166 265.262C17.1418 264.204 22.2335 266.367 25.8294 269.743C29.4253 273.118 31.7831 277.572 33.9523 281.995C47.0183 308.633 56.9455 337.216 60.6623 366.633L60.6843 366.525Z" fill="#F2F2F2"/>
<path d="M10.1276 266.151L19.2849 286.88L28.4423 307.609C31.3425 314.174 34.2371 320.742 37.2347 327.263C40.206 333.728 43.2791 340.147 46.5576 346.463C49.8313 352.77 53.3107 358.974 57.0875 364.997C57.5578 365.747 58.0327 366.494 58.5123 367.238C58.8442 367.754 59.6738 367.275 59.3395 366.756C55.4904 360.778 51.9436 354.612 48.6171 348.332C45.287 342.045 42.1745 335.645 39.177 329.195C36.1635 322.71 33.2658 316.172 30.3759 309.632C27.334 302.747 24.2926 295.863 21.2517 288.978L12.0944 268.249L10.9548 265.669C10.707 265.108 9.88128 265.593 10.1276 266.151Z" fill="white"/>
<path d="M56.8642 366.669C46.4992 369.032 35.6383 367.858 26.0224 363.337C16.4065 358.816 8.59264 351.21 3.83328 341.737C2.64747 339.377 1.64691 336.858 1.52588 334.222C1.40485 331.585 2.28076 328.797 4.31345 327.104C6.53184 325.257 9.76155 325.011 12.5432 325.796C15.3248 326.582 17.7558 328.26 20.0804 329.972C34.0822 340.288 46.9813 352.458 56.8819 366.731L56.8642 366.669Z" fill="#F2F2F2"/>
<path d="M3.41772 328.154L13.789 336.454L24.1603 344.753C27.4449 347.381 30.7274 350.013 34.0509 352.592C37.3451 355.149 40.6802 357.656 44.0937 360.053C47.5023 362.447 50.9899 364.732 54.5826 366.843C55.03 367.106 55.479 367.366 55.9297 367.624C56.2416 367.802 56.5428 367.331 56.2286 367.151C52.6104 365.083 49.0981 362.835 45.6693 360.469C42.2367 358.101 38.8867 355.615 35.5825 353.072C32.2607 350.516 28.9849 347.901 25.7123 345.283C22.2675 342.527 18.823 339.77 15.3786 337.014L5.00734 328.715L3.71669 327.682C3.43602 327.457 3.13877 327.931 3.41772 328.154Z" fill="white"/>
<path d="M498.297 368H24.9856C24.8959 368 24.8071 367.983 24.7243 367.949C24.6414 367.915 24.5661 367.865 24.5026 367.802C24.4391 367.739 24.3888 367.664 24.3544 367.581C24.32 367.499 24.3024 367.411 24.3024 367.321C24.3024 367.232 24.32 367.144 24.3544 367.061C24.3888 366.979 24.4391 366.904 24.5026 366.841C24.5661 366.778 24.6414 366.728 24.7243 366.694C24.8071 366.66 24.8959 366.642 24.9856 366.643H498.297C498.478 366.643 498.651 366.714 498.779 366.841C498.906 366.969 498.978 367.141 498.978 367.321C498.978 367.501 498.906 367.674 498.779 367.801C498.651 367.928 498.478 368 498.297 368Z" fill="#3F3D56"/>
<path d="M485.863 300.003H453.819C453.819 300.381 453.668 300.744 453.4 301.011C453.132 301.278 452.768 301.428 452.389 301.428H420.933C420.489 301.762 420.084 302.144 419.726 302.568C418.651 303.846 418.063 305.461 418.067 307.128V308.268C418.068 310.158 418.821 311.97 420.162 313.306C421.503 314.642 423.322 315.393 425.219 315.393H485.863C487.759 315.392 489.577 314.641 490.918 313.305C492.259 311.969 493.013 310.158 493.015 308.268V307.128C493.012 305.24 492.258 303.429 490.917 302.093C489.577 300.758 487.759 300.006 485.863 300.003Z" fill="#3F3D56"/>
<path d="M459.543 315.11H452.105V367.55H459.543V315.11Z" fill="#3F3D56"/>
<path d="M480.711 367.29C480.711 368.091 469.441 367.6 455.538 367.6C441.635 367.6 430.365 368.091 430.365 367.29C430.365 366.489 441.635 360.14 455.538 360.14C469.441 360.14 480.711 366.489 480.711 367.29Z" fill="#3F3D56"/>
<path d="M484.462 301.645L483.214 293.87C483.056 292.89 482.514 292.013 481.708 291.431C480.901 290.848 479.896 290.608 478.912 290.764L466.045 292.81L444.007 296.316L436.838 297.456H452.389C452.768 297.456 453.132 297.606 453.4 297.873C453.668 298.14 453.819 298.503 453.819 298.881V300.003C453.819 300.381 453.668 300.744 453.4 301.011C453.132 301.278 452.768 301.428 452.389 301.428H412.815C412.263 301.686 411.784 302.078 411.425 302.568C411.12 302.967 410.901 303.423 410.779 303.909C410.657 304.395 410.635 304.901 410.715 305.396L411.07 307.607L411.499 310.292L411.962 313.176C412.12 314.154 412.66 315.029 413.465 315.61C414.269 316.191 415.272 316.431 416.253 316.277L426.477 314.652L455.964 309.961L481.343 305.926C482.325 305.766 483.203 305.227 483.788 304.425C484.372 303.623 484.614 302.624 484.462 301.645Z" fill="#6C63FF"/>
<path d="M425.693 302.568C425.317 302.071 424.819 301.678 424.246 301.428H413.307C412.732 301.677 412.231 302.069 411.854 302.568C411.345 303.218 411.069 304.019 411.07 304.843V348.282C411.072 349.272 411.467 350.221 412.169 350.921C412.872 351.621 413.824 352.014 414.818 352.016H422.73C423.723 352.014 424.676 351.621 425.378 350.921C426.081 350.221 426.476 349.272 426.477 348.282V304.843C426.478 304.019 426.202 303.218 425.693 302.568Z" fill="#6C63FF"/>
<path d="M449.505 228.583L449.431 228.486L444.522 222.461C444.261 222.138 443.945 221.862 443.59 221.646C443.401 221.519 443.197 221.415 442.983 221.338C442.67 221.213 442.341 221.132 442.005 221.099C441.781 221.075 441.555 221.071 441.33 221.087C441.325 221.088 441.321 221.09 441.318 221.093C440.56 221.149 439.837 221.435 439.247 221.914L429.172 230.053L416.225 240.518L396.905 256.136L395.497 257.276H419.944L421.357 256.136L426.031 252.357L426.363 252.095L448.939 233.849L448.956 233.838C449.421 233.465 449.788 232.986 450.026 232.442C450.183 232.085 450.283 231.706 450.324 231.319C450.376 230.831 450.33 230.339 450.189 229.869C450.049 229.399 449.816 228.962 449.505 228.583Z" fill="#6C63FF"/>
<path d="M449.431 228.486C449.115 226.95 448.414 225.518 447.394 224.325C446.377 223.122 445.067 222.2 443.59 221.646C443.36 221.56 443.138 221.481 442.909 221.418C442.392 221.265 441.864 221.154 441.329 221.087C441.325 221.088 441.321 221.09 441.318 221.093C438.911 220.816 436.49 221.482 434.567 222.951L417.14 236.221C416.77 236.55 416.471 236.951 416.259 237.398C416.048 237.846 415.929 238.331 415.91 238.826C415.883 239.406 415.991 239.986 416.225 240.518C416.282 240.638 416.345 240.758 416.414 240.872C416.547 241.103 416.709 241.318 416.894 241.51L419.686 244.634L426.18 251.89L426.363 252.095L426.781 252.568C427.113 252.931 427.514 253.225 427.961 253.434C428.407 253.642 428.891 253.76 429.384 253.782C429.876 253.804 430.368 253.728 430.832 253.56C431.295 253.392 431.721 253.134 432.084 252.802L447.114 236.717C447.894 235.881 448.513 234.909 448.939 233.85C449.625 232.148 449.796 230.283 449.431 228.486Z" fill="#2F2E41"/>
<path d="M456.075 207.846C471.912 207.846 484.751 195.055 484.751 179.276C484.751 163.498 471.912 150.707 456.075 150.707C440.238 150.707 427.399 163.498 427.399 179.276C427.399 195.055 440.238 207.846 456.075 207.846Z" fill="#6C63FF"/>
<path d="M466.829 297.712L466.045 292.81L465.582 289.932C465.424 288.953 464.883 288.077 464.077 287.496C463.272 286.914 462.268 286.675 461.285 286.831L440.443 290.143L434.791 291.043L433.646 291.226V297.456H452.389C452.768 297.456 453.132 297.606 453.4 297.873C453.668 298.14 453.819 298.503 453.819 298.881V300.003C453.819 300.381 453.668 300.744 453.4 301.011C453.132 301.278 452.768 301.428 452.389 301.428H393.077C393.077 301.44 393.083 301.451 393.083 301.463L393.438 303.674L394.33 309.237C394.488 310.215 395.028 311.09 395.832 311.671C396.637 312.253 397.639 312.493 398.621 312.338L408.845 310.714L411.07 310.36L411.499 310.292L426.477 307.909L436.667 306.285L452.835 303.714L453.075 303.674L463.711 301.987C464.693 301.83 465.572 301.293 466.156 300.491C466.741 299.69 466.983 298.691 466.829 297.712Z" fill="#6C63FF"/>
<path d="M495.103 276.748C495.103 300.038 492.729 313.968 456.113 309.978C456.062 309.973 456.016 309.967 455.964 309.961C449.434 309.319 442.975 308.088 436.667 306.285C433.389 305.331 430.203 304.087 427.147 302.568C426.426 302.204 425.734 301.822 425.053 301.428H452.389C452.768 301.428 453.132 301.278 453.4 301.011C453.668 300.744 453.819 300.381 453.819 300.003V298.881C453.819 298.503 453.668 298.14 453.4 297.873C453.132 297.606 452.768 297.456 452.389 297.456H433.646V261.454C433.645 260.347 433.202 259.285 432.416 258.502C431.63 257.719 430.564 257.278 429.453 257.276H414.205C414.337 256.9 414.469 256.518 414.612 256.136C416.042 252.193 417.737 248.35 419.686 244.634C422.356 239.473 425.534 234.589 429.172 230.053C431.706 226.893 434.55 223.992 437.662 221.395C443.401 216.675 449.648 213.757 455.987 213.757C479.364 213.757 495.103 253.457 495.103 276.748Z" fill="#2F2E41"/>
<path d="M456.678 189.865L456.708 188.797C454.714 188.742 452.956 188.618 451.636 187.656C451.261 187.368 450.954 187.003 450.733 186.586C450.513 186.169 450.386 185.71 450.36 185.239C450.337 184.951 450.38 184.662 450.487 184.394C450.594 184.126 450.762 183.887 450.977 183.694C451.854 182.956 453.265 183.195 454.293 183.665L455.18 184.07L453.479 171.69L452.418 171.835L453.864 182.366C453.272 182.147 452.634 182.079 452.009 182.169C451.384 182.258 450.792 182.502 450.286 182.878C449.945 183.175 449.678 183.545 449.505 183.961C449.332 184.377 449.258 184.827 449.289 185.277C449.32 185.909 449.49 186.527 449.786 187.087C450.082 187.647 450.498 188.135 451.004 188.519C452.701 189.754 454.906 189.815 456.678 189.865Z" fill="#2F2E41"/>
<path d="M447.167 172.743H441.396V173.811H447.167V172.743Z" fill="#2F2E41"/>
<path d="M465.384 172.743H459.613V173.811H465.384V172.743Z" fill="#2F2E41"/>
<path d="M478.961 171.427C476.731 168.082 472.806 166.664 468.937 166.319C464.581 165.931 460.372 166.768 456.12 167.581C451.44 168.475 446.486 169.313 441.77 168.181C439.684 167.701 437.735 166.754 436.069 165.414C434.404 164.073 433.065 162.373 432.155 160.442C430.428 156.675 430.056 152.43 431.101 148.422C432.206 144.158 434.949 140.407 438.275 137.574C445.062 131.791 454.246 129.192 463.08 129.437C471.88 129.663 480.386 132.643 487.392 137.954C494.409 143.456 499.347 151.166 501.4 159.825C503.547 168.413 502.848 177.462 499.407 185.621C497.474 190.089 494.678 194.117 492.521 198.472C490.512 202.527 488.965 207.242 490.215 211.765C491.312 215.733 494.531 219.259 498.573 220.337C500.412 220.818 502.358 220.69 504.118 219.974C505.879 219.259 507.358 217.993 508.334 216.367C510.354 213.193 510.403 209.035 507.369 206.472C506.604 205.815 505.713 205.32 504.75 205.017C503.787 204.714 502.772 204.609 501.767 204.709C500.763 204.809 499.789 205.111 498.905 205.598C498.021 206.085 497.246 206.745 496.626 207.54C495.395 209.133 494.844 211.144 495.093 213.139C495.242 214.147 493.694 214.582 493.543 213.565C493.181 211.455 493.582 209.286 494.676 207.444C495.769 205.602 497.483 204.206 499.513 203.506C501.543 202.806 503.757 202.846 505.759 203.62C507.762 204.394 509.424 205.851 510.449 207.732C512.279 211.159 511.292 215.292 508.969 218.222C507.771 219.782 506.147 220.966 504.291 221.63C502.435 222.295 500.427 222.413 498.506 221.97C494.278 220.998 490.82 217.65 489.194 213.717C487.383 209.337 488.212 204.45 489.978 200.201C491.885 195.607 494.719 191.487 496.959 187.06C498.988 183.06 500.279 178.729 500.771 174.274C501.755 165.328 499.717 156.31 494.979 148.647C490.15 141.103 482.779 135.522 474.191 132.906C465.665 130.177 456.46 130.419 448.09 133.594C439.923 136.8 432.036 143.787 432.13 153.172C432.171 157.18 433.665 161.268 436.747 163.942C440.43 167.138 445.558 167.411 450.188 166.912C454.848 166.41 459.372 165.054 464.052 164.709C468.122 164.408 472.513 164.721 476.148 166.735C477.84 167.676 479.281 169.007 480.349 170.618C480.923 171.479 479.531 172.282 478.961 171.427Z" fill="#2F2E41"/>
<path d="M473.123 236.751L470.851 235.178L466.623 232.253C465.805 231.69 464.797 231.473 463.819 231.649C462.841 231.826 461.973 232.381 461.405 233.194L447.623 252.956L434.79 271.355L433.646 272.997V297.456H433.749C434.641 297.368 435.471 296.963 436.089 296.316C436.222 296.18 436.342 296.033 436.45 295.877L440.443 290.143L450.312 275.989L460.542 261.329L461.514 259.933L474.055 241.949C474.123 241.854 474.186 241.755 474.244 241.653C474.301 241.555 474.352 241.454 474.398 241.351C474.758 240.556 474.827 239.661 474.594 238.821C474.361 237.981 473.841 237.249 473.123 236.751Z" fill="#6C63FF"/>
<path d="M473.162 228.93C472.758 228.666 472.333 228.433 471.892 228.235C469.938 227.343 467.734 227.148 465.652 227.683C463.571 228.219 461.738 229.452 460.461 231.176L447.44 248.766C447.178 249.185 447.003 249.652 446.924 250.139C446.845 250.626 446.864 251.123 446.98 251.603C447.097 252.082 447.307 252.534 447.6 252.932C447.893 253.329 448.263 253.665 448.687 253.919L460.541 261.329L460.69 261.42L461.285 261.791C462.136 262.303 463.156 262.459 464.122 262.224C465.088 261.989 465.922 261.382 466.44 260.537L475.634 242.354L475.788 242.052L475.794 242.046L476.36 240.912C477.393 238.871 477.638 236.524 477.049 234.315C476.459 232.106 475.076 230.19 473.162 228.93Z" fill="#2F2E41"/>
<path d="M393.438 301.428V344.344C393.439 345.333 393.834 346.282 394.537 346.982C395.239 347.682 396.191 348.076 397.185 348.077H405.097C406.091 348.076 407.043 347.682 407.746 346.982C408.448 346.282 408.843 345.333 408.845 344.344V301.428H393.438Z" fill="#6C63FF"/>
<path d="M452.389 296.316H434.79V261.454C434.789 260.044 434.226 258.693 433.225 257.696C432.225 256.699 430.868 256.138 429.452 256.136H364.191C362.774 256.137 361.416 256.697 360.414 257.694C359.413 258.691 358.849 260.044 358.847 261.454V297.25C358.849 298.661 359.413 300.014 360.414 301.011C361.416 302.008 362.774 302.568 364.191 302.568H452.389C452.48 302.568 452.566 302.563 452.652 302.557C452.732 302.551 452.812 302.534 452.892 302.523C453.476 302.405 454.001 302.09 454.378 301.631C454.756 301.172 454.962 300.597 454.963 300.003V298.881C454.963 298.2 454.692 297.548 454.209 297.067C453.726 296.586 453.071 296.316 452.389 296.316ZM452.389 301.428H364.191C363.078 301.428 362.011 300.988 361.224 300.205C360.436 299.421 359.993 298.359 359.991 297.25V261.454C359.993 260.346 360.436 259.284 361.224 258.5C362.011 257.717 363.078 257.277 364.191 257.276H429.452C430.564 257.278 431.63 257.719 432.416 258.502C433.202 259.285 433.645 260.347 433.646 261.454V297.456H452.389C452.768 297.456 453.132 297.606 453.4 297.873C453.668 298.14 453.819 298.503 453.819 298.881V300.003C453.819 300.381 453.668 300.744 453.4 301.011C453.132 301.278 452.768 301.428 452.389 301.428Z" fill="#3F3D56"/>
<path d="M396.819 283.736C399.249 283.736 401.219 281.774 401.219 279.353C401.219 276.932 399.249 274.97 396.819 274.97C394.389 274.97 392.42 276.932 392.42 279.353C392.42 281.774 394.389 283.736 396.819 283.736Z" fill="#6C63FF"/>
<path d="M69.7965 205.963C86.7071 205.963 100.416 192.305 100.416 175.457C100.416 158.61 86.7071 144.952 69.7965 144.952C52.8859 144.952 39.1771 158.61 39.1771 175.457C39.1771 192.305 52.8859 205.963 69.7965 205.963Z" fill="#6C63FF"/>
<path d="M63.8276 290.217H55.3832C54.3972 290.218 53.4519 290.608 52.7547 291.303C52.0575 291.997 51.6654 292.939 51.6644 293.922V364.037C51.6654 365.019 52.0575 365.961 52.7547 366.656C53.4519 367.351 54.3972 367.741 55.3832 367.742H63.8276C64.8136 367.741 65.7589 367.351 66.4561 366.656C67.1533 365.961 67.5454 365.019 67.5463 364.037V293.922C67.5454 292.939 67.1533 291.997 66.4561 291.303C65.7589 290.608 64.8136 290.218 63.8276 290.217Z" fill="#2F2E41"/>
<path d="M81.6719 290.217H73.2276C72.2416 290.218 71.2962 290.608 70.599 291.303C69.9018 291.997 69.5097 292.939 69.5088 293.922V364.037C69.5097 365.019 69.9018 365.961 70.599 366.656C71.2962 367.351 72.2416 367.741 73.2276 367.742H81.6719C82.1603 367.742 82.6439 367.646 83.0951 367.46C83.5463 367.274 83.9562 367.001 84.3016 366.657C84.6469 366.313 84.9208 365.904 85.1077 365.455C85.2946 365.005 85.3907 364.524 85.3907 364.037V293.922C85.3907 293.435 85.2946 292.953 85.1077 292.504C84.9208 292.054 84.6469 291.646 84.3016 291.302C83.9562 290.958 83.5463 290.685 83.0951 290.499C82.6439 290.312 82.1603 290.217 81.6719 290.217Z" fill="#2F2E41"/>
<path d="M87.7879 221.959C84.8286 218.149 80.7479 215.356 76.1165 213.97C71.4852 212.585 66.535 212.676 61.9584 214.232C57.3819 215.788 53.4081 218.73 50.5929 222.647C47.7777 226.565 46.262 231.26 46.2578 236.078V298.174C46.2555 298.363 46.2708 298.552 46.3036 298.738C46.4394 299.688 46.9145 300.557 47.6417 301.187C48.3689 301.816 49.2994 302.163 50.2626 302.164H88.6349C89.6964 302.162 90.7138 301.741 91.4644 300.993C92.2149 300.245 92.6376 299.231 92.6397 298.174V236.078C92.6469 230.965 90.9392 225.995 87.7879 221.959Z" fill="#2F2E41"/>
<path d="M95.6537 188.943L95.6218 187.803C97.7505 187.744 99.6272 187.611 101.037 186.584C101.437 186.277 101.766 185.887 102.001 185.442C102.236 184.996 102.372 184.506 102.4 184.003C102.425 183.696 102.378 183.387 102.264 183.101C102.149 182.815 101.97 182.559 101.74 182.353C100.804 181.566 99.2979 181.82 98.2 182.322L97.2533 182.755L99.0688 169.536L100.202 169.691L98.6581 180.935C100.15 180.498 101.532 180.686 102.479 181.483C102.842 181.799 103.128 182.194 103.312 182.639C103.497 183.083 103.576 183.563 103.543 184.043C103.51 184.718 103.329 185.378 103.012 185.976C102.696 186.574 102.252 187.096 101.712 187.505C99.9004 188.824 97.5457 188.89 95.6537 188.943Z" fill="#2F2E41"/>
<path d="M92.5194 170.66H86.3568V171.8H92.5194V170.66Z" fill="#2F2E41"/>
<path d="M60.8183 222.837C60.488 222.478 60.0893 222.187 59.6454 221.983C59.2014 221.778 58.7211 221.664 58.2323 221.646L51.5787 221.372L49.7992 221.298C48.814 221.258 47.8531 221.609 47.1271 222.273C46.401 222.938 45.9691 223.862 45.9259 224.843L44.8733 250.106L43.0139 294.902C42.976 295.837 43.2938 296.751 43.9038 297.463C44.5138 298.174 45.3709 298.63 46.3036 298.738C46.3952 298.749 46.481 298.755 46.5726 298.761L51.6644 298.972L55.0114 299.109C55.2794 299.12 55.548 299.103 55.8123 299.057C56.5113 298.933 57.1602 298.612 57.6831 298.134C58.0439 297.805 58.3353 297.408 58.5406 296.965C58.7458 296.523 58.8608 296.044 58.8788 295.557L59.102 290.217L60.744 250.71L61.7966 225.499C61.8377 224.518 61.4858 223.56 60.8183 222.837Z" fill="#6C63FF"/>
<path d="M55.9439 217.308C55.2328 217.159 54.5079 217.084 53.7811 217.086C50.975 217.089 48.2849 218.201 46.3007 220.178C44.3165 222.155 43.2003 224.835 43.1969 227.631V247.011C43.1985 247.624 43.3524 248.228 43.6449 248.768C43.9374 249.308 44.3594 249.768 44.8733 250.106C45.2924 250.381 45.7636 250.567 46.2578 250.653C46.4747 250.694 46.6949 250.715 46.9157 250.716H60.6466C60.6792 250.717 60.7118 250.715 60.7441 250.71C61.7126 250.685 62.6331 250.285 63.3095 249.594C63.986 248.903 64.3648 247.976 64.3653 247.011V227.631C64.3623 225.209 63.5239 222.862 61.9908 220.983C60.4576 219.103 58.3227 217.806 55.9439 217.308Z" fill="#2F2E41"/>
<path d="M129.278 272.501C128.381 272.039 127.676 271.276 127.289 270.347C126.901 269.418 126.856 268.382 127.161 267.422L130.417 257.1L129.467 256.313L104.483 235.719L87.7879 221.959L85.757 220.283C84.9975 219.657 84.0194 219.357 83.0377 219.449C82.056 219.541 81.1512 220.017 80.5222 220.774L75.1384 227.26C74.8263 227.635 74.5913 228.067 74.4471 228.532C74.3028 228.996 74.2521 229.485 74.2978 229.97C74.3435 230.454 74.4847 230.925 74.7134 231.355C74.9421 231.785 75.2537 232.166 75.6304 232.476L92.6398 246.498L94.5735 248.088L129.856 277.169C130.509 277.709 131.327 278.011 132.175 278.023C133.024 278.036 133.851 277.758 134.519 277.238C134.703 277.094 134.872 276.932 135.022 276.753C135.047 276.73 135.07 276.705 135.091 276.679L135.772 275.858L129.278 272.501Z" fill="#6C63FF"/>
<path d="M103.281 231.763L88.2287 219.491C87.1532 218.614 85.9148 217.956 84.5841 217.556C83.2535 217.155 81.8567 217.02 80.4736 217.157C79.0904 217.295 77.748 217.702 76.5229 218.356C75.2978 219.01 74.214 219.899 73.3334 220.97C72.4529 222.042 71.7928 223.276 71.3908 224.601C70.9888 225.927 70.8529 227.319 70.9908 228.697C71.2692 231.48 72.6459 234.038 74.818 235.81L89.8705 248.082C90.5335 248.623 91.3639 248.919 92.2209 248.921C93.078 248.922 93.909 248.627 94.5734 248.088C94.7714 247.935 94.95 247.759 95.1053 247.564L103.802 236.979C104.109 236.608 104.341 236.179 104.482 235.719C104.697 235.015 104.697 234.264 104.483 233.56C104.269 232.856 103.851 232.231 103.281 231.763Z" fill="#2F2E41"/>
<path d="M62.12 180.622C60.5256 177.969 59.2777 175.045 59.87 171.9C60.3989 169.093 62.427 166.906 65.3434 166.619C67.0996 166.446 68.8474 166.913 70.5628 167.217C71.9688 167.463 73.3977 167.556 74.8239 167.492C77.6935 167.362 80.5065 166.652 83.0916 165.404C85.7156 164.18 88.0462 162.412 89.9268 160.216C91.8073 158.02 93.1942 155.449 93.9942 152.675C95.7345 146.363 94.4424 139.195 90.3096 134.057L91.7439 133.68L89.8763 139.793C89.8399 139.918 89.7755 140.034 89.6878 140.131C89.6002 140.228 89.4916 140.304 89.3703 140.353C89.249 140.402 89.1181 140.423 88.9874 140.415C88.8567 140.406 88.7296 140.368 88.6157 140.304C85.2309 138.173 81.447 136.75 77.4933 136.12C73.5397 135.49 69.4989 135.667 65.6161 136.64C63.4221 137.19 61.303 138.002 59.305 139.059C58.3302 139.575 57.462 138.1 58.4388 137.582C62.1913 135.632 66.302 134.46 70.5221 134.138C74.7423 133.816 78.9841 134.35 82.9911 135.708C85.2731 136.483 87.4526 137.531 89.4819 138.827L88.2213 139.338L90.0889 133.225C90.1305 133.083 90.2085 132.953 90.3154 132.849C90.4223 132.745 90.5544 132.67 90.6988 132.632C90.8433 132.594 90.9951 132.594 91.1396 132.632C91.284 132.67 91.4162 132.744 91.5232 132.848C93.4454 135.277 94.8541 138.069 95.6644 141.055C96.4747 144.041 96.6699 147.16 96.2382 150.223C95.8209 153.243 94.7679 156.14 93.1481 158.725C91.5283 161.31 89.3783 163.525 86.839 165.225C84.3023 166.931 81.4512 168.119 78.4508 168.72C75.4503 169.321 72.36 169.323 69.3586 168.726C67.679 168.404 65.7741 167.944 64.126 168.645C63.5283 168.932 63.0014 169.347 62.5827 169.86C62.164 170.373 61.8639 170.971 61.7036 171.613C60.7697 174.766 62.3588 177.76 63.9821 180.381L62.12 180.622Z" fill="#2F2E41"/>
<path d="M173.824 243.779L145.521 227.46C144.816 227.054 144.028 226.811 143.217 226.748C142.405 226.686 141.589 226.807 140.83 227.1C140.071 227.394 139.388 227.854 138.832 228.446C138.275 229.038 137.859 229.747 137.614 230.521L129.467 256.313L126.069 267.08C125.684 268.295 125.742 269.607 126.233 270.783C126.724 271.959 127.616 272.925 128.752 273.51L135.022 276.753L155.481 287.327C156.255 287.728 157.115 287.937 157.987 287.937C158.631 287.935 159.27 287.821 159.875 287.6L159.915 287.583C160.63 287.311 161.28 286.892 161.822 286.354C162.364 285.816 162.786 285.171 163.062 284.46L176.175 250.402C176.642 249.2 176.662 247.872 176.231 246.657C175.799 245.441 174.945 244.421 173.824 243.779ZM175.105 249.997L161.992 284.055C161.774 284.616 161.439 285.126 161.011 285.55C160.582 285.974 160.068 286.304 159.503 286.517L159.475 286.529C158.914 286.735 158.316 286.823 157.719 286.787C157.122 286.75 156.539 286.591 156.008 286.318L135.772 275.858L129.278 272.501C128.381 272.039 127.676 271.276 127.289 270.347C126.902 269.418 126.856 268.382 127.161 267.422L130.417 257.1L138.701 230.863C138.896 230.253 139.225 229.694 139.665 229.228C140.104 228.761 140.643 228.399 141.242 228.167C141.841 227.935 142.484 227.84 143.124 227.888C143.765 227.936 144.386 228.127 144.943 228.446L173.246 244.765C174.133 245.271 174.808 246.078 175.149 247.038C175.49 247.998 175.474 249.048 175.105 249.997Z" fill="#3F3D56"/>
<path d="M164.328 254.691C164.041 254.691 163.759 254.619 163.507 254.482L144.627 244.222C144.229 244.004 143.934 243.637 143.807 243.203C143.679 242.769 143.73 242.302 143.947 241.904C144.165 241.507 144.531 241.212 144.967 241.084C145.403 240.955 145.871 241.004 146.271 241.219L165.151 251.479C165.486 251.661 165.75 251.949 165.903 252.298C166.055 252.646 166.086 253.036 165.992 253.404C165.898 253.772 165.683 254.099 165.381 254.332C165.08 254.565 164.709 254.691 164.328 254.691Z" fill="#6C63FF"/>
<path d="M160.895 262.101C160.608 262.101 160.326 262.029 160.074 261.892L141.195 251.632C140.796 251.414 140.501 251.047 140.374 250.613C140.246 250.179 140.297 249.712 140.514 249.314C140.732 248.917 141.099 248.622 141.534 248.494C141.97 248.365 142.439 248.414 142.838 248.629L161.718 258.889C162.053 259.071 162.318 259.359 162.47 259.708C162.622 260.056 162.654 260.446 162.559 260.814C162.465 261.182 162.25 261.509 161.949 261.742C161.647 261.975 161.276 262.101 160.895 262.101Z" fill="#6C63FF"/>
<path d="M158.034 270.081C157.748 270.081 157.465 270.009 157.214 269.872L138.334 259.612C137.936 259.394 137.641 259.027 137.513 258.593C137.386 258.159 137.436 257.692 137.654 257.294C137.871 256.897 138.238 256.602 138.674 256.474C139.109 256.345 139.578 256.394 139.978 256.609L158.858 266.869C159.193 267.051 159.457 267.339 159.609 267.688C159.762 268.036 159.793 268.426 159.699 268.794C159.604 269.162 159.389 269.489 159.088 269.722C158.787 269.955 158.416 270.081 158.034 270.081Z" fill="#6C63FF"/>
<path d="M357.689 108.609H278.32C277.179 108.608 276.085 108.156 275.278 107.352C274.471 106.548 274.018 105.459 274.016 104.322V4.2872C274.018 3.15056 274.471 2.06084 275.278 1.25712C276.085 0.453391 277.179 0.00129289 278.32 0H357.689C358.83 0.00130042 359.924 0.453401 360.73 1.25713C361.537 2.06085 361.991 3.15056 361.992 4.2872V104.322C361.991 105.459 361.537 106.548 360.73 107.352C359.924 108.156 358.83 108.608 357.689 108.609ZM278.32 0.952714C277.432 0.953705 276.581 1.30534 275.954 1.93046C275.327 2.55558 274.974 3.40314 274.973 4.2872V104.322C274.974 105.206 275.327 106.054 275.954 106.679C276.581 107.304 277.432 107.655 278.32 107.656H357.689C358.576 107.655 359.427 107.304 360.054 106.679C360.682 106.054 361.035 105.206 361.036 104.322V4.2872C361.035 3.40314 360.682 2.55558 360.054 1.93046C359.427 1.30534 358.576 0.953706 357.689 0.952714H278.32Z" fill="#3F3D56"/>
<path d="M311.402 48.0842H293.931C293.36 48.0835 292.814 47.8575 292.41 47.4556C292.007 47.0538 291.78 46.5089 291.779 45.9406V25.4003C291.78 24.832 292.007 24.2871 292.41 23.8852C292.814 23.4834 293.36 23.2573 293.931 23.2567H311.402C311.972 23.2573 312.519 23.4834 312.922 23.8852C313.326 24.2871 313.553 24.832 313.553 25.4003V45.9406C313.553 46.5089 313.326 47.0538 312.922 47.4556C312.519 47.8575 311.972 48.0835 311.402 48.0842Z" fill="#6C63FF"/>
<path d="M345.349 57.6113H327.878C327.308 57.6107 326.761 57.3846 326.357 56.9828C325.954 56.5809 325.727 56.036 325.727 55.4677V34.9274C325.727 34.3591 325.954 33.8142 326.357 33.4124C326.761 33.0105 327.308 32.7844 327.878 32.7838H345.349C345.919 32.7844 346.466 33.0105 346.87 33.4124C347.273 33.8142 347.5 34.3591 347.501 34.9274V55.4677C347.5 56.036 347.273 56.5809 346.87 56.9828C346.466 57.3846 345.919 57.6107 345.349 57.6113Z" fill="#CCCCCC"/>
<path d="M318.096 86.669H300.625C300.054 86.6684 299.507 86.4423 299.104 86.0405C298.701 85.6386 298.474 85.0937 298.473 84.5254V63.9851C298.474 63.4168 298.701 62.8719 299.104 62.4701C299.507 62.0682 300.054 61.8422 300.625 61.8415H318.096C318.666 61.8422 319.213 62.0682 319.616 62.4701C320.02 62.8719 320.247 63.4168 320.247 63.9851V84.5254C320.247 85.0937 320.02 85.6386 319.616 86.0405C319.213 86.4423 318.666 86.6684 318.096 86.669Z" fill="#FF6584"/>
<path d="M254.158 81.5707C253.827 80.79 253.275 80.1229 252.568 79.6518C251.861 79.1807 251.032 78.9264 250.181 78.9202H170.811C169.67 78.9208 168.576 79.3726 167.77 80.1763C166.963 80.98 166.51 82.0699 166.509 83.2065V183.241C166.51 184.378 166.963 185.468 167.77 186.271C168.576 187.075 169.67 187.527 170.811 187.528H250.181C251.322 187.526 252.415 187.074 253.222 186.27C254.028 185.467 254.482 184.378 254.484 183.241V83.2065C254.486 82.645 254.375 82.0888 254.158 81.5707ZM253.528 183.241C253.527 184.125 253.174 184.973 252.547 185.598C251.919 186.223 251.069 186.575 250.181 186.576H170.811C169.924 186.576 169.072 186.224 168.445 185.599C167.817 184.974 167.464 184.126 167.464 183.241V83.2065C167.465 82.3225 167.818 81.4751 168.446 80.85C169.073 80.2249 169.924 79.8732 170.811 79.8721H250.181C250.85 79.8746 251.502 80.0755 252.056 80.4491C252.609 80.8227 253.038 81.3521 253.288 81.9697C253.337 82.0927 253.379 82.2183 253.414 82.3459C253.49 82.6265 253.528 82.9159 253.528 83.2065V183.241Z" fill="#3F3D56"/>
<path d="M237.592 102.539H213.685C213.178 102.539 212.692 102.338 212.333 101.98C211.974 101.623 211.773 101.138 211.773 100.633C211.773 100.128 211.974 99.6431 212.333 99.2858C212.692 98.9285 213.178 98.7277 213.685 98.7277H237.592C238.099 98.7277 238.585 98.9285 238.944 99.2858C239.303 99.6431 239.504 100.128 239.504 100.633C239.504 101.138 239.303 101.623 238.944 101.98C238.585 102.338 238.099 102.539 237.592 102.539Z" fill="#3F3D56"/>
<path d="M237.592 112.542H213.685C213.178 112.542 212.692 112.341 212.333 111.984C211.974 111.627 211.773 111.142 211.773 110.637C211.773 110.131 211.974 109.647 212.333 109.289C212.692 108.932 213.178 108.731 213.685 108.731H237.592C238.099 108.731 238.585 108.932 238.944 109.289C239.303 109.647 239.504 110.131 239.504 110.637C239.504 111.142 239.303 111.627 238.944 111.984C238.585 112.341 238.099 112.542 237.592 112.542Z" fill="#3F3D56"/>
<path d="M201.419 118.238H183.948C183.378 118.237 182.831 118.011 182.427 117.61C182.024 117.208 181.797 116.663 181.796 116.094V95.5542C181.797 94.9859 182.024 94.441 182.427 94.0391C182.831 93.6373 183.378 93.4112 183.948 93.4106H201.419C201.989 93.4112 202.536 93.6373 202.94 94.0391C203.343 94.441 203.57 94.9859 203.57 95.5542V116.094C203.57 116.663 203.343 117.208 202.94 117.61C202.536 118.011 201.989 118.237 201.419 118.238Z" fill="#6C63FF"/>
<path d="M237.426 133.025H183.398C183.146 133.026 182.897 132.977 182.665 132.881C182.432 132.786 182.221 132.645 182.043 132.468C181.865 132.291 181.724 132.081 181.628 131.85C181.531 131.618 181.482 131.37 181.482 131.12C181.482 130.869 181.531 130.621 181.628 130.39C181.724 130.159 181.865 129.948 182.043 129.771C182.221 129.594 182.432 129.454 182.665 129.359C182.897 129.263 183.146 129.214 183.398 129.215H237.426C237.933 129.215 238.418 129.417 238.776 129.774C239.134 130.131 239.335 130.615 239.335 131.12C239.335 131.625 239.134 132.109 238.776 132.466C238.418 132.823 237.933 133.024 237.426 133.025Z" fill="#CCCCCC"/>
<path d="M237.426 143.029H183.398C183.146 143.029 182.897 142.98 182.665 142.885C182.432 142.789 182.221 142.649 182.043 142.472C181.865 142.295 181.724 142.085 181.628 141.853C181.531 141.622 181.482 141.374 181.482 141.123C181.482 140.873 181.531 140.625 181.628 140.394C181.724 140.162 181.865 139.952 182.043 139.775C182.221 139.598 182.432 139.458 182.665 139.362C182.897 139.267 183.146 139.218 183.398 139.218H237.426C237.933 139.218 238.42 139.419 238.778 139.776C239.137 140.133 239.339 140.618 239.339 141.123C239.339 141.629 239.137 142.113 238.778 142.471C238.42 142.828 237.933 143.029 237.426 143.029Z" fill="#CCCCCC"/>
<path d="M237.426 153.032H183.398C183.146 153.033 182.897 152.984 182.665 152.888C182.432 152.793 182.221 152.652 182.043 152.475C181.865 152.298 181.724 152.088 181.628 151.857C181.531 151.625 181.482 151.377 181.482 151.127C181.482 150.876 181.531 150.628 181.628 150.397C181.724 150.166 181.865 149.955 182.043 149.778C182.221 149.601 182.432 149.461 182.665 149.366C182.897 149.27 183.146 149.221 183.398 149.221H237.426C237.933 149.221 238.42 149.422 238.778 149.78C239.137 150.137 239.339 150.622 239.339 151.127C239.339 151.632 239.137 152.117 238.778 152.474C238.42 152.832 237.933 153.032 237.426 153.032Z" fill="#CCCCCC"/>
<path d="M237.426 163.036H183.398C183.146 163.036 182.897 162.987 182.665 162.892C182.432 162.796 182.221 162.656 182.043 162.479C181.865 162.302 181.724 162.092 181.628 161.86C181.531 161.629 181.482 161.381 181.482 161.13C181.482 160.88 181.531 160.632 181.628 160.4C181.724 160.169 181.865 159.959 182.043 159.782C182.221 159.605 182.432 159.465 182.665 159.369C182.897 159.273 183.146 159.224 183.398 159.225H237.426C237.933 159.225 238.42 159.426 238.778 159.783C239.137 160.14 239.339 160.625 239.339 161.13C239.339 161.636 239.137 162.12 238.778 162.478C238.42 162.835 237.933 163.036 237.426 163.036Z" fill="#CCCCCC"/>
<path d="M237.426 173.039H183.398C183.146 173.04 182.897 172.991 182.665 172.895C182.432 172.8 182.221 172.659 182.043 172.482C181.865 172.305 181.724 172.095 181.628 171.864C181.531 171.632 181.482 171.384 181.482 171.134C181.482 170.883 181.531 170.635 181.628 170.404C181.724 170.173 181.865 169.962 182.043 169.785C182.221 169.608 182.432 169.468 182.665 169.372C182.897 169.277 183.146 169.228 183.398 169.228H237.426C237.933 169.229 238.418 169.43 238.776 169.788C239.134 170.145 239.335 170.629 239.335 171.134C239.335 171.639 239.134 172.123 238.776 172.48C238.418 172.837 237.933 173.038 237.426 173.039Z" fill="#CCCCCC"/>
<path d="M314.319 119.534L269.072 162.452L269.732 163.142L314.978 120.224L314.319 119.534Z" fill="#E6E6E6"/>
<path d="M268.65 163.509L274.393 163.441L274.382 162.488L269.667 162.544L269.955 157.855L269 157.798L268.65 163.509Z" fill="#E6E6E6"/>
<path d="M315.399 119.166L315.05 124.877L314.095 124.82L314.382 120.131L309.668 120.187L309.657 119.234L315.399 119.166Z" fill="#E6E6E6"/>
<path d="M292.025 146.578C294.93 146.578 297.285 144.232 297.285 141.338C297.285 138.444 294.93 136.098 292.025 136.098C289.121 136.098 286.766 138.444 286.766 141.338C286.766 144.232 289.121 146.578 292.025 146.578Z" fill="#E6E6E6"/>
<path d="M253.674 18.0744L208.427 60.9921L209.087 61.6822L254.333 18.7644L253.674 18.0744Z" fill="#E6E6E6"/>
<path d="M208.005 62.0489L213.748 61.9816L213.738 61.028L209.022 61.0845L209.311 56.3956L208.355 56.3381L208.005 62.0489Z" fill="#E6E6E6"/>
<path d="M254.754 17.7059L254.405 23.4173L253.45 23.3603L253.738 18.6709L249.023 18.7273L249.012 17.7743L254.754 17.7059Z" fill="#E6E6E6"/>
<path d="M231.381 45.1181C234.285 45.1181 236.64 42.7721 236.64 39.8782C236.64 36.9843 234.285 34.6383 231.381 34.6383C228.476 34.6383 226.121 36.9843 226.121 39.8782C226.121 42.7721 228.476 45.1181 231.381 45.1181Z" fill="#E6E6E6"/>
<path d="M434.773 296.92H433.629V302.05H434.773V296.92Z" fill="#3F3D56"/>
</g>
<defs>
<clipPath id="clip0_19_626">
<rect width="511.399" height="368" fill="white"/>
</clipPath>
</defs>
</svg>
