<svg width="121" height="121" viewBox="0 0 121 121" fill="none" xmlns="http://www.w3.org/2000/svg">
<path d="M60.4998 110.917C60.4998 110.917 100.833 90.75 100.833 60.5V25.2083L60.4998 10.0833L20.1665 25.2083V60.5C20.1665 90.75 60.4998 110.917 60.4998 110.917Z" stroke="#DEBD0D" stroke-width="4.5" stroke-linecap="round" stroke-linejoin="round"/>
<path d="M63.6621 51.7125C63.3796 52.0007 63.2214 52.3881 63.2214 52.7917C63.2214 53.1952 63.3796 53.5827 63.6621 53.8708L66.1288 56.3375C66.4169 56.62 66.8044 56.7782 67.2079 56.7782C67.6115 56.7782 67.9989 56.62 68.2871 56.3375L74.0992 50.5254C74.8744 52.2385 75.1091 54.1472 74.7721 55.997C74.435 57.8469 73.5422 59.5501 72.2126 60.8797C70.883 62.2093 69.1798 63.1021 67.3299 63.4391C65.4801 63.7762 63.5714 63.5415 61.8583 62.7663L51.2054 73.4192C50.5921 74.0325 49.7603 74.377 48.8929 74.377C48.0256 74.377 47.1937 74.0325 46.5804 73.4192C45.9671 72.8059 45.6226 71.974 45.6226 71.1067C45.6226 70.2393 45.9671 69.4075 46.5804 68.7942L57.2333 58.1413C56.4581 56.4282 56.2234 54.5195 56.5605 52.6697C56.8975 50.8198 57.7903 49.1166 59.1199 47.787C60.4495 46.4574 62.1527 45.5646 64.0026 45.2275C65.8524 44.8905 67.7611 45.1252 69.4742 45.9004L63.6775 51.6971L63.6621 51.7125Z" stroke="#DEBD0D" stroke-width="3.08333" stroke-linecap="round" stroke-linejoin="round"/>
</svg>
