<svg width="121" height="121" viewBox="0 0 121 121" fill="none" xmlns="http://www.w3.org/2000/svg">
<path d="M76.6335 110.917H44.3668C41.8663 110.93 39.4498 110.015 37.5865 108.347C35.7232 106.679 34.546 104.379 34.2835 101.892L25.2085 15.125H95.7918L86.6664 101.892C86.4048 104.37 85.2348 106.664 83.3821 108.33C81.5295 109.997 79.1254 110.918 76.6335 110.917Z" stroke="#12E5CB" stroke-width="4.58" stroke-linecap="round" stroke-linejoin="round"/>
<path d="M54.2288 55.9792C55.4168 55.9792 56.5561 55.5073 57.3961 54.6672C58.2361 53.8272 58.708 52.6879 58.708 51.5C58.708 49.0275 57.8122 47.9167 56.9163 46.125C54.9957 42.2855 56.515 38.8616 60.4997 35.375C61.3955 39.8542 64.083 44.1542 67.6663 47.0208C71.2497 49.8875 73.0413 53.2917 73.0413 56.875C73.0413 58.522 72.7169 60.1529 72.0867 61.6745C71.4564 63.1961 70.5326 64.5787 69.368 65.7433C68.2034 66.9079 66.8208 67.8317 65.2992 68.462C63.7775 69.0923 62.1467 69.4167 60.4997 69.4167C58.8527 69.4167 57.2218 69.0923 55.7002 68.462C54.1786 67.8317 52.796 66.9079 51.6314 65.7433C50.4668 64.5787 49.543 63.1961 48.9127 61.6745C48.2824 60.1529 47.958 58.522 47.958 56.875C47.958 54.8092 48.7338 52.7649 49.7497 51.5C49.7497 52.6879 50.2216 53.8272 51.0616 54.6672C51.9016 55.5073 53.0409 55.9792 54.2288 55.9792Z" stroke="#12E5CB" stroke-width="3.38" stroke-linecap="round" stroke-linejoin="round"/>
</svg>
