<svg width="121" height="121" viewBox="0 0 121 121" fill="none" xmlns="http://www.w3.org/2000/svg">
<path d="M90.75 100.833V30.25C90.75 27.5758 89.6876 25.011 87.7967 23.12C85.9057 21.229 83.3409 20.1667 80.6667 20.1667H40.3333C37.6591 20.1667 35.0943 21.229 33.2033 23.12C31.3123 25.011 30.25 27.5758 30.25 30.25V100.833" stroke="#EE2F74" stroke-width="5.08" stroke-linecap="round" stroke-linejoin="round"/>
<path d="M10.0835 100.833H110.917" stroke="#EE2F74" stroke-width="5.08" stroke-linecap="round" stroke-linejoin="round"/>
<path d="M71.5 43.125H49.5C48.7406 43.125 48.125 43.7406 48.125 44.5V51.375C48.125 52.1344 48.7406 52.75 49.5 52.75H71.5C72.2594 52.75 72.875 52.1344 72.875 51.375V44.5C72.875 43.7406 72.2594 43.125 71.5 43.125Z" stroke="#EE2F74" stroke-width="2.75" stroke-linecap="round" stroke-linejoin="round"/>
<path d="M56.375 58.25H49.5C48.7406 58.25 48.125 58.8656 48.125 59.625V66.5C48.125 67.2594 48.7406 67.875 49.5 67.875H56.375C57.1344 67.875 57.75 67.2594 57.75 66.5V59.625C57.75 58.8656 57.1344 58.25 56.375 58.25Z" stroke="#EE2F74" stroke-width="2.75" stroke-linecap="round" stroke-linejoin="round"/>
<path d="M71.5 58.25H64.625C63.8656 58.25 63.25 58.8656 63.25 59.625V66.5C63.25 67.2594 63.8656 67.875 64.625 67.875H71.5C72.2594 67.875 72.875 67.2594 72.875 66.5V59.625C72.875 58.8656 72.2594 58.25 71.5 58.25Z" stroke="#EE2F74" stroke-width="2.75" stroke-linecap="round" stroke-linejoin="round"/>
</svg>
