<svg width="920" height="550" viewBox="0 0 920 550" fill="none" xmlns="http://www.w3.org/2000/svg">
<g clip-path="url(#clip0_13_30)">
<path d="M704.333 543.78C692.555 533.828 685.401 518.107 687.278 502.802C689.154 487.497 700.774 473.427 715.847 470.177C730.92 466.927 748.102 475.924 752.681 490.648C755.2 462.26 758.104 432.683 773.196 408.508C786.862 386.619 810.532 370.956 836.185 368.154C861.838 365.352 888.847 375.935 904.845 396.182C920.844 416.43 924.761 445.865 913.556 469.111C905.302 486.235 890.094 498.979 874.161 509.347C822.673 542.568 760.921 556.077 700.266 547.39L704.333 543.78Z" fill="#F2F2F2"/>
<path d="M879.478 376.522C858.311 393.762 838.893 413.044 821.504 434.089C794.29 466.912 772.269 503.712 756.207 543.208C755.031 546.089 759.71 547.343 760.872 544.494C787.153 480.305 829.108 423.73 882.899 379.943C885.315 377.976 881.873 374.571 879.478 376.522Z" fill="white"/>
<path d="M296.146 541.076C312.323 527.407 322.149 505.813 319.572 484.792C316.995 463.771 301.035 444.446 280.332 439.982C259.629 435.518 236.029 447.875 229.741 468.098C226.28 429.108 222.292 388.484 201.562 355.28C182.792 325.215 150.282 303.702 115.048 299.853C79.8134 296.004 42.7165 310.54 20.7422 338.35C-1.23199 366.16 -6.61228 406.59 8.77789 438.518C20.1153 462.038 41.0028 479.542 62.8877 493.782C132.708 539.214 219.32 558.162 301.733 546.034" fill="#F2F2F2"/>
<path d="M55.5846 311.346C84.6571 335.026 111.328 361.51 135.212 390.416C159.099 419.291 180.129 450.416 198.007 483.352C208 501.828 216.977 520.835 224.898 540.29C226.512 544.247 220.086 545.97 218.489 542.056C204.46 507.758 187.103 474.918 166.667 444.006C146.33 413.206 123.054 384.451 97.1644 358.146C82.5213 343.275 67.0717 329.22 50.8854 316.045C47.5677 313.344 52.2943 308.667 55.5846 311.346Z" fill="white"/>
<path d="M660.353 548.796H274.398V152.796C274.398 68.5438 342.942 0 427.194 0H507.557C591.809 0 660.353 68.5438 660.353 152.796V548.796Z" fill="#F2F2F2"/>
<path d="M579.99 548.796H274.398V152.796C274.314 120.512 284.537 89.0449 303.578 62.9748C304.28 62.0181 304.98 61.0737 305.702 60.1397C314.912 48.0599 325.873 37.4215 338.222 28.5754C338.92 28.0679 339.62 27.5691 340.331 27.0704C350.664 19.9195 361.842 14.0739 373.61 9.66645C374.308 9.40158 375.02 9.13618 375.731 8.88163C386.374 5.08349 397.407 2.48179 408.626 1.12455C409.321 1.02954 410.035 0.955199 410.749 0.880852C421.682 -0.288083 432.708 -0.288083 443.641 0.880852C444.353 0.955199 445.067 1.02953 445.77 1.12557C456.986 2.48289 468.016 5.08428 478.656 8.88168C479.368 9.13623 480.079 9.40161 480.78 9.667C492.403 14.0188 503.449 19.7773 513.673 26.8138C514.383 27.3017 515.094 27.8005 515.794 28.2992C522.716 33.2402 529.218 38.7448 535.233 44.7567C540.057 49.579 544.552 54.7192 548.688 60.1429C549.408 61.0738 550.108 62.0181 550.808 62.9733C569.851 89.0436 580.074 120.512 579.99 152.796V548.796Z" fill="#CCCCCC"/>
<path d="M555.14 371.68C564.484 371.68 572.059 364.105 572.059 354.761C572.059 345.417 564.484 337.843 555.14 337.843C545.797 337.843 538.222 345.417 538.222 354.761C538.222 364.105 545.797 371.68 555.14 371.68Z" fill="#6C63FF"/>
<path d="M628.735 536.935H615.771L609.604 486.932L628.737 486.933L628.735 536.935Z" fill="#FFB8B8"/>
<path d="M606.511 533.231H631.513V548.972H590.77C590.77 546.905 591.177 544.858 591.968 542.948C592.759 541.039 593.919 539.303 595.38 537.842C596.842 536.38 598.577 535.22 600.487 534.429C602.397 533.638 604.444 533.231 606.511 533.231Z" fill="#2F2E41"/>
<path d="M693.237 536.935H680.273L674.106 486.932L693.239 486.933L693.237 536.935Z" fill="#FFB8B8"/>
<path d="M671.013 533.231H696.015V548.972H655.272C655.272 546.905 655.679 544.858 656.47 542.948C657.261 541.039 658.421 539.303 659.882 537.842C661.344 536.38 663.079 535.22 664.989 534.429C666.899 533.638 668.946 533.231 671.013 533.231Z" fill="#2F2E41"/>
<path d="M563.703 358.113C562.77 356.739 562.15 355.177 561.887 353.538C561.623 351.898 561.722 350.22 562.177 348.623C562.631 347.026 563.431 345.548 564.519 344.293C565.606 343.038 566.956 342.037 568.473 341.36L612.541 219.899L634.225 231.733L583.909 347.806C584.877 350.429 584.849 353.316 583.831 355.92C582.813 358.524 580.875 360.664 578.384 361.934C575.893 363.205 573.023 363.517 570.318 362.813C567.612 362.109 565.258 360.437 563.703 358.113Z" fill="#FFB8B8"/>
<path d="M686.615 380.936C685.175 380.11 683.932 378.978 682.977 377.62C682.021 376.262 681.374 374.711 681.082 373.076C680.791 371.441 680.861 369.762 681.288 368.158C681.716 366.553 682.49 365.062 683.556 363.788L669.904 235.303L694.582 236.43L700.255 362.813C702.276 364.745 703.517 367.352 703.743 370.139C703.97 372.926 703.166 375.699 701.485 377.933C699.804 380.167 697.361 381.706 694.621 382.26C691.88 382.813 689.032 382.342 686.615 380.936Z" fill="#FFB8B8"/>
<path d="M647.247 197.401C661.591 197.401 673.218 185.774 673.218 171.43C673.218 157.087 661.591 145.459 647.247 145.459C632.904 145.459 621.276 157.087 621.276 171.43C621.276 185.774 632.904 197.401 647.247 197.401Z" fill="#FFB8B8"/>
<path d="M686.449 351.715H608.151L608.246 351.105C608.386 350.195 622.2 259.704 612.012 230.099C610.989 227.19 611.079 224.006 612.264 221.159C613.449 218.312 615.645 216.004 618.43 214.679C632.992 207.821 660.946 199.377 684.539 219.87C688.011 222.935 690.722 226.766 692.458 231.06C694.194 235.353 694.908 239.992 694.542 244.609L686.449 351.715Z" fill="#6C63FF"/>
<path d="M623.19 273.077L587.939 265.925L604.462 226.77C605.451 222.977 607.904 219.732 611.282 217.745C614.661 215.759 618.689 215.193 622.484 216.173C626.279 217.153 629.53 219.597 631.525 222.971C633.52 226.345 634.095 230.372 633.124 234.169L623.19 273.077Z" fill="#6C63FF"/>
<path d="M668.337 286.355L666.218 237.776C664.611 228.644 669.838 220.011 677.878 218.6C685.92 217.194 693.773 223.528 695.387 232.727L703.353 278.119L668.337 286.355Z" fill="#6C63FF"/>
<path d="M683.844 345.899C696.443 393.881 697.817 454.886 694.419 521.429L677.5 519.314L646.835 392.425L629.916 521.429L610.883 520.372C605.197 450.551 599.661 390.611 608.768 351.186L683.844 345.899Z" fill="#2F2E41"/>
<path d="M664.36 191.501C659.515 196.662 650.517 193.892 649.885 186.841C649.836 186.294 649.839 185.743 649.896 185.196C650.222 182.073 652.026 179.237 651.594 175.94C651.496 175.119 651.191 174.337 650.706 173.668C646.845 168.498 637.782 175.98 634.138 171.3C631.904 168.43 634.53 163.911 632.816 160.704C630.553 156.47 623.85 158.559 619.647 156.24C614.97 153.661 615.25 146.486 618.328 142.121C622.083 136.799 628.665 133.958 635.166 133.549C641.666 133.14 648.122 134.897 654.191 137.262C661.087 139.949 667.924 143.663 672.168 149.726C677.328 157.1 677.825 167.013 675.244 175.635C673.674 180.88 668.316 187.287 664.36 191.501Z" fill="#2F2E41"/>
<path d="M888.205 549.477H107.526C107.192 549.476 106.873 549.343 106.638 549.106C106.402 548.87 106.27 548.551 106.27 548.218C106.27 547.884 106.402 547.565 106.638 547.329C106.873 547.093 107.192 546.959 107.526 546.958H888.205C888.539 546.959 888.858 547.093 889.093 547.329C889.329 547.565 889.461 547.884 889.461 548.218C889.461 548.551 889.329 548.87 889.093 549.106C888.858 549.343 888.539 549.476 888.205 549.477Z" fill="#3F3D56"/>
<path d="M495.926 434.067H358.462C356.652 434.077 354.911 433.368 353.623 432.096C352.334 430.824 351.603 429.094 351.589 427.283V120.455C351.603 118.645 352.334 116.914 353.623 115.642C354.911 114.37 356.652 113.662 358.462 113.671H495.926C497.736 113.662 499.476 114.37 500.765 115.642C502.053 116.914 502.785 118.645 502.799 120.455V427.283C502.785 429.094 502.053 430.824 500.765 432.096C499.476 433.368 497.736 434.077 495.926 434.067Z" fill="white"/>
<path d="M502.799 212.951H351.589V215.066H502.799V212.951Z" fill="#CCCCCC"/>
<path d="M503.327 333.613H352.118V335.728H503.327V333.613Z" fill="#CCCCCC"/>
<path d="M401.287 113.672H399.172V435.124H401.287V113.672Z" fill="#CCCCCC"/>
<path d="M454.158 113.672H452.043V435.124H454.158V113.672Z" fill="#CCCCCC"/>
</g>
<defs>
<clipPath id="clip0_13_30">
<rect width="919.947" height="550" fill="white"/>
</clipPath>
</defs>
</svg>
