<svg width="565" height="450" viewBox="0 0 565 450" fill="none" xmlns="http://www.w3.org/2000/svg">
<g clip-path="url(#clip0_20_2745)">
<path d="M496.138 436.616L484.396 436.615L478.811 391.325L496.14 391.326L496.138 436.616Z" fill="#FFB6B6"/>
<path d="M496.551 448.865L460.444 448.863V448.407C460.444 440.645 466.736 434.353 474.498 434.353L481.094 429.349L493.4 434.354L496.552 434.354L496.551 448.865Z" fill="#2F2E41"/>
<path d="M444.083 436.616L432.341 436.615L426.756 391.325L444.085 391.326L444.083 436.616Z" fill="#FFB6B6"/>
<path d="M444.496 448.865L408.389 448.863V448.407C408.39 440.645 414.682 434.353 422.443 434.353L429.039 429.349L441.345 434.354L444.497 434.354L444.496 448.865Z" fill="#2F2E41"/>
<path d="M438.488 183.865L506.231 185.291C506.231 185.291 518.409 205.257 509.111 233.424L510.153 241.267L505.874 253.39L503.735 290.47L505.874 296.175L504.448 306.871C504.448 306.871 510.153 377.466 495.891 413.12L478.777 412.407L472.359 319.383L475.925 312.575L475.212 309.723L466.655 266.938L458.098 289.044V301.326L450.254 310.436C450.254 310.436 453.106 394.58 445.262 411.693H426.102L418.878 297.601L426.009 231.284L424.583 227.006L426.722 224.867L425.296 217.736L438.488 183.865Z" fill="#2F2E41"/>
<path d="M467.368 53.7276L488.047 48.736L493.752 62.2845C493.752 62.2845 523.266 77.9723 524.693 99.3647C524.693 99.3647 528.693 116.479 525.127 124.322C521.562 132.166 506.587 157.124 506.587 157.124C506.587 157.124 520.136 200.622 516.57 202.761C513.005 204.9 428.148 200.622 428.148 196.343C428.148 192.065 442.271 147.141 442.271 147.141L445.262 70.1284L464.515 62.9976L467.368 53.7276Z" fill="#3F3D56"/>
<path d="M522.497 229.263C518.169 227.082 516.428 221.805 518.609 217.477C518.829 217.041 519.087 216.639 519.365 216.258L507.858 137.365L523.789 137.874L532.122 214.743C535.143 217.305 536.144 221.682 534.283 225.375C532.102 229.703 526.826 231.444 522.497 229.263Z" fill="#FFB6B6"/>
<path d="M371.339 192.028C369.596 187.505 371.85 182.426 376.372 180.684C376.827 180.508 377.289 180.384 377.751 180.288L422.203 114.103L433.665 125.178L388.221 187.733C388.739 191.659 386.542 195.575 382.683 197.061C378.16 198.804 373.081 196.55 371.339 192.028Z" fill="#FFB6B6"/>
<path d="M493.469 117.466C488.968 102.002 496.443 86.2255 512.548 86.3017C517.203 86.3237 520.82 87.6745 521.822 91.4135C525.33 104.5 527.243 124.254 527.243 124.254L531.405 145.286L528.884 149.653L534.139 163.748L531.59 170.416L531.039 204.468L518.203 203.755L504.061 177.796L498.653 174.58C498.653 174.58 502.995 132.608 494.358 120.523L493.469 117.466Z" fill="#3F3D56"/>
<path d="M435.975 79.4096C443.481 65.16 462.696 61.7847 474.227 73.0281C477.56 76.2778 479.222 79.7618 477.346 83.1475C470.778 94.9975 455.553 107.756 455.553 107.756L436.804 137.898L431.957 139.288L425.945 153.076L413.061 168.224L395.997 177.223L386.014 167.24L388.134 154.407L413.824 120.177C413.824 120.177 432.308 96.9197 434.491 82.227L435.975 79.4096Z" fill="#3F3D56"/>
<path d="M471.297 49.56C471.769 49.6167 472.24 49.6593 472.708 49.6807C474.166 49.7606 475.605 49.6775 476.993 49.4423C481.209 48.7665 485.039 46.7696 487.995 43.8412C491.119 40.7512 493.258 36.6269 493.836 31.9317C495.19 20.8489 487.298 10.7532 476.215 9.39905C465.292 8.05644 455.334 15.6968 453.744 26.5252C453.719 26.6928 453.694 26.8534 453.676 27.0202C452.322 38.1101 460.206 48.1994 471.297 49.56Z" fill="#FFB6B6"/>
<path d="M449.187 25.7833C452.058 27.203 456.749 22.7396 458.546 25.3076C458.837 24.7527 459.16 24.216 459.478 23.7084C459.766 23.2543 460.179 22.2848 460.656 22.1187C460.052 23.575 460.185 25.5473 460.811 27.237C463.643 28.2952 467.35 25.9529 469.971 23.1824C474.087 18.8383 480.807 29.9779 479.218 35.7429C481.241 33.2734 485.629 34.6662 487.116 37.4898C488.602 40.3063 486.091 42.563 485.554 45.7047L489.608 45.1899C492.166 42.6987 491.987 38.5008 494.093 35.6135C497.612 30.7814 498.975 25.8511 496.33 20.8642C493.984 16.4548 493.765 10.748 489.461 8.20582C491.341 7.2864 484.654 8.72276 486.44 5.72646C488.234 2.73645 478.671 2.37354 478.047 3.97542C475.314 0.704839 472.558 -1.45152 469.196 1.16915C465.895 3.74747 466.236 6.45758 462.359 6.21471C460.54 6.10198 460.739 9.49433 459.658 10.9733C458.582 12.4444 454.402 13.3888 454.199 13.2314C453.095 12.3676 449.339 19.7211 449.339 19.7211C449.339 19.7211 446.293 24.3446 449.187 25.7833Z" fill="#2F2E41"/>
<path d="M196.155 154.13C264.086 154.13 319.155 209.199 319.155 277.13C319.155 345.061 264.086 400.13 196.155 400.13C128.224 400.13 34.2104 332.779 73.1553 277.13C112.1 221.482 128.224 154.13 196.155 154.13Z" fill="#F2F2F2"/>
<path d="M360.782 159.982C359.679 159.982 358.782 160.879 358.782 161.982V225.982C358.782 227.085 359.679 227.982 360.782 227.982C361.885 227.982 362.782 227.085 362.782 225.982V161.982C362.782 160.879 361.885 159.982 360.782 159.982Z" fill="#3F3D56"/>
<path d="M24.7817 111.982C23.6787 111.982 22.7817 112.879 22.7817 113.982V129.982C22.7817 131.085 23.6787 131.982 24.7817 131.982C25.8848 131.982 26.7817 131.085 26.7817 129.982V113.982C26.7817 112.879 25.8848 111.982 24.7817 111.982Z" fill="#3F3D56"/>
<path d="M24.7817 159.982C23.6787 159.982 22.7817 160.879 22.7817 161.982V192.982C22.7817 194.085 23.6787 194.982 24.7817 194.982C25.8848 194.982 26.7817 194.085 26.7817 192.982V161.982C26.7817 160.879 25.8848 159.982 24.7817 159.982Z" fill="#3F3D56"/>
<path d="M24.7817 203.982C23.6787 203.982 22.7817 204.879 22.7817 205.982V236.982C22.7817 238.085 23.6787 238.982 24.7817 238.982C25.8848 238.982 26.7817 238.085 26.7817 236.982V205.982C26.7817 204.879 25.8848 203.982 24.7817 203.982Z" fill="#3F3D56"/>
<path d="M204.155 48.9817C203.052 48.9817 202.155 49.8787 202.155 50.9817V81.9817C202.155 83.0847 203.052 83.9817 204.155 83.9817C205.258 83.9817 206.155 83.0847 206.155 81.9817V50.9817C206.155 49.8787 205.258 48.9817 204.155 48.9817Z" fill="#3F3D56"/>
<path d="M510.551 432.608C512.617 432.737 513.759 430.17 512.196 428.675L512.041 428.056C512.061 428.007 512.082 427.957 512.102 427.908C514.192 422.926 521.272 422.961 523.344 427.95C525.182 432.378 527.523 436.814 528.1 441.496C528.358 443.562 528.242 445.668 527.783 447.696C532.091 438.286 534.358 428.009 534.358 417.675C534.358 415.079 534.216 412.482 533.925 409.892C533.686 407.774 533.357 405.668 532.931 403.582C530.625 392.305 525.632 381.564 518.431 372.592C514.969 370.7 512.082 367.742 510.338 364.196C509.711 362.917 509.22 361.541 508.988 360.14C509.382 360.191 510.473 354.191 510.176 353.823C510.725 352.99 511.708 352.576 512.308 351.763C515.29 347.719 519.399 348.425 521.544 353.92C526.126 356.233 526.17 360.068 523.359 363.757C521.57 366.104 521.324 369.279 519.755 371.791C519.916 371.998 520.084 372.198 520.246 372.405C523.207 376.203 525.768 380.285 527.927 384.574C527.317 379.808 528.217 374.065 529.753 370.364C531.501 366.147 534.778 362.595 537.664 358.949C541.13 354.57 548.237 356.481 548.848 362.032C548.854 362.086 548.859 362.14 548.865 362.194C548.436 362.435 548.016 362.692 547.606 362.964C545.267 364.511 546.075 368.137 548.847 368.565L548.91 368.575C548.755 370.119 548.49 371.649 548.103 373.154C551.805 387.47 543.813 392.684 532.401 392.918C532.149 393.048 531.904 393.177 531.652 393.3C532.808 396.555 533.732 399.894 534.416 403.278C535.03 406.269 535.456 409.292 535.695 412.327C535.992 416.157 535.967 420.007 535.644 423.831L535.663 423.695C536.483 419.484 538.77 415.55 542.09 412.825C547.035 408.762 554.022 407.266 559.358 404C561.926 402.428 565.217 404.46 564.769 407.438L564.747 407.58C563.953 407.903 563.178 408.278 562.429 408.697C562 408.939 561.58 409.196 561.17 409.467C558.83 411.015 559.639 414.641 562.411 415.069L562.474 415.079C562.519 415.085 562.558 415.092 562.603 415.098C561.24 418.334 559.341 421.338 556.964 423.927C554.65 436.425 544.708 437.61 534.074 433.971H534.068C532.905 439.035 531.206 443.982 529.023 448.697H511.003C510.938 448.497 510.88 448.29 510.822 448.09C512.489 448.193 514.168 448.097 515.808 447.793C514.471 446.152 513.134 444.499 511.797 442.858C511.765 442.826 511.739 442.794 511.714 442.762C511.035 441.922 510.351 441.089 509.673 440.249L509.672 440.248C509.63 437.671 509.939 435.101 510.551 432.608Z" fill="#F2F2F2"/>
<path d="M0 448.751C0 449.411 0.53003 449.941 1.19006 449.941H563.48C564.14 449.941 564.67 449.411 564.67 448.751C564.67 448.091 564.14 447.561 563.48 447.561H1.19006C0.53003 447.561 0 448.091 0 448.751Z" fill="#CCCCCC"/>
<path d="M142.376 268.839H73.1553V266.839H142.376C148.389 266.839 153.281 261.947 153.281 255.933V209.13H155.281V255.933C155.281 263.049 149.492 268.839 142.376 268.839Z" fill="#6C63FF"/>
<path d="M274.455 370.294H117.019V372.294H274.455V370.294Z" fill="#6C63FF"/>
<path d="M374.343 255.466H290.251C285.713 255.466 282.021 251.774 282.021 247.236V164.17C282.021 159.632 285.713 155.94 290.251 155.94H374.343C378.881 155.94 382.573 159.632 382.573 164.17V247.236C382.573 251.774 378.881 255.466 374.343 255.466Z" fill="#E6E6E6"/>
<path d="M305.912 158.392C294.071 158.392 284.473 167.99 284.473 179.831V245.474C284.473 249.638 287.849 253.014 292.013 253.014H343.433C363.695 253.014 380.121 236.588 380.121 216.326V165.932C380.121 161.768 376.745 158.392 372.58 158.392L305.912 158.392Z" fill="white"/>
<path d="M354.819 182.532H309.598C308.736 182.532 308.034 181.83 308.034 180.967C308.034 180.104 308.736 179.403 309.598 179.403H354.819C355.682 179.403 356.383 180.104 356.383 180.967C356.383 181.83 355.682 182.532 354.819 182.532Z" fill="#E6E6E6"/>
<path d="M354.819 215.895H309.598C308.736 215.895 308.034 215.193 308.034 214.331C308.034 213.468 308.736 212.766 309.598 212.766H354.819C355.682 212.766 356.383 213.468 356.383 214.331C356.383 215.193 355.682 215.895 354.819 215.895Z" fill="#E6E6E6"/>
<path d="M373.182 199.224H291.235C290.372 199.224 289.67 198.522 289.67 197.66C289.67 196.797 290.372 196.095 291.235 196.095H373.182C374.045 196.095 374.746 196.797 374.746 197.66C374.746 198.522 374.045 199.224 373.182 199.224Z" fill="#E6E6E6"/>
<path d="M374.019 229.461H344.415C343.553 229.461 342.851 228.759 342.851 227.896C342.851 227.033 343.553 226.332 344.415 226.332H374.019C374.882 226.332 375.583 227.033 375.583 227.896C375.583 228.759 374.882 229.461 374.019 229.461Z" fill="#E6E6E6"/>
<path d="M197.711 420.97H130.937C127.333 420.97 124.401 418.039 124.401 414.435V348.475C124.401 344.872 127.333 341.94 130.937 341.94H197.711C201.315 341.94 204.246 344.872 204.246 348.475V414.435C204.246 418.039 201.315 420.97 197.711 420.97Z" fill="#E6E6E6"/>
<path d="M143.372 343.887C133.97 343.887 126.349 351.509 126.349 360.911V413.036C126.349 416.342 129.029 419.023 132.336 419.023H173.167C189.256 419.023 202.299 405.98 202.299 389.891V349.875C202.299 346.568 199.619 343.887 196.312 343.887L143.372 343.887Z" fill="white"/>
<path d="M182.208 363.055H146.3C145.615 363.055 145.057 362.498 145.057 361.813C145.057 361.128 145.615 360.571 146.3 360.571H182.208C182.893 360.571 183.45 361.128 183.45 361.813C183.45 362.498 182.893 363.055 182.208 363.055Z" fill="#E6E6E6"/>
<path d="M182.208 389.548H146.3C145.615 389.548 145.057 388.991 145.057 388.306C145.057 387.621 145.615 387.064 146.3 387.064H182.208C182.893 387.064 183.45 387.621 183.45 388.306C183.45 388.991 182.893 389.548 182.208 389.548Z" fill="#E6E6E6"/>
<path d="M196.789 376.311H131.718C131.033 376.311 130.476 375.753 130.476 375.068C130.476 374.383 131.033 373.826 131.718 373.826H196.789C197.474 373.826 198.032 374.383 198.032 375.068C198.032 375.753 197.474 376.311 196.789 376.311Z" fill="#E6E6E6"/>
<path d="M197.454 400.32H173.947C173.262 400.32 172.704 399.763 172.704 399.078C172.704 398.393 173.262 397.836 173.947 397.836H197.454C198.139 397.836 198.696 398.393 198.696 399.078C198.696 399.763 198.139 400.32 197.454 400.32Z" fill="#E6E6E6"/>
<path d="M151.04 208.626H101.657C98.9923 208.626 96.8242 206.458 96.8242 203.793V155.012C96.8242 152.347 98.9923 150.179 101.657 150.179H151.04C153.705 150.179 155.873 152.347 155.873 155.012V203.793C155.873 206.458 153.705 208.626 151.04 208.626Z" fill="#E6E6E6"/>
<path d="M110.854 151.619C103.901 151.619 98.2642 157.256 98.2642 164.209V202.758C98.2642 205.203 100.247 207.186 102.692 207.186H132.888C144.787 207.186 154.433 197.54 154.433 185.641V156.047C154.433 153.602 152.45 151.619 150.005 151.619L110.854 151.619Z" fill="white"/>
<path d="M139.575 165.795H113.019C112.512 165.795 112.1 165.383 112.1 164.876C112.1 164.37 112.512 163.958 113.019 163.958H139.575C140.081 163.958 140.493 164.37 140.493 164.876C140.493 165.383 140.081 165.795 139.575 165.795Z" fill="#E6E6E6"/>
<path d="M139.575 185.388H113.019C112.512 185.388 112.1 184.976 112.1 184.469C112.1 183.962 112.512 183.55 113.019 183.55H139.575C140.081 183.55 140.493 183.962 140.493 184.469C140.493 184.976 140.081 185.388 139.575 185.388Z" fill="#E6E6E6"/>
<path d="M150.358 175.598H102.235C101.729 175.598 101.316 175.186 101.316 174.679C101.316 174.172 101.729 173.76 102.235 173.76H150.358C150.865 173.76 151.277 174.172 151.277 174.679C151.277 175.186 150.865 175.598 150.358 175.598Z" fill="#E6E6E6"/>
<path d="M150.85 193.354H133.465C132.959 193.354 132.546 192.942 132.546 192.435C132.546 191.929 132.959 191.517 133.465 191.517H150.85C151.357 191.517 151.769 191.929 151.769 192.435C151.769 192.942 151.357 193.354 150.85 193.354Z" fill="#E6E6E6"/>
<path d="M295.155 270.13C300.678 270.13 305.155 265.653 305.155 260.13C305.155 254.608 300.678 250.13 295.155 250.13C289.632 250.13 285.155 254.608 285.155 260.13C285.155 265.653 289.632 270.13 295.155 270.13Z" fill="#6C63FF"/>
<path d="M154.155 219.13C159.678 219.13 164.155 214.653 164.155 209.13C164.155 203.608 159.678 199.13 154.155 199.13C148.632 199.13 144.155 203.608 144.155 209.13C144.155 214.653 148.632 219.13 154.155 219.13Z" fill="#6C63FF"/>
<path d="M202.155 356.13C207.678 356.13 212.155 351.653 212.155 346.13C212.155 340.608 207.678 336.13 202.155 336.13C196.632 336.13 192.155 340.608 192.155 346.13C192.155 351.653 196.632 356.13 202.155 356.13Z" fill="#6C63FF"/>
<path d="M223.756 78.8529C230.64 78.8529 236.22 73.3904 236.22 66.6522C236.22 59.9139 230.64 54.4515 223.756 54.4515C216.873 54.4515 211.293 59.9139 211.293 66.6522C211.293 73.3904 216.873 78.8529 223.756 78.8529Z" fill="#F2F2F2"/>
<path d="M323.669 62.4782H256.584C254.283 62.4782 252.41 60.6057 252.41 58.3043C252.41 56.0029 254.283 54.1304 256.584 54.1304H323.669C325.97 54.1304 327.843 56.0029 327.843 58.3043C327.843 60.6057 325.97 62.4782 323.669 62.4782Z" fill="#F2F2F2"/>
<path d="M376.022 76.6053H256.584C254.283 76.6053 252.41 74.7329 252.41 72.4314C252.41 70.13 254.283 68.2575 256.584 68.2575H376.022C378.324 68.2575 380.196 70.13 380.196 72.4314C380.196 74.7329 378.324 76.6053 376.022 76.6053Z" fill="#F2F2F2"/>
<path d="M43.359 130.13C47.8138 130.13 51.4251 126.595 51.4251 122.234C51.4251 117.873 47.8138 114.338 43.359 114.338C38.9043 114.338 35.293 117.873 35.293 122.234C35.293 126.595 38.9043 130.13 43.359 130.13Z" fill="#F2F2F2"/>
<path d="M108.021 119.533H64.6046C63.1152 119.533 61.9033 118.321 61.9033 116.832C61.9033 115.342 63.1152 114.13 64.6046 114.13H108.021C109.51 114.13 110.722 115.342 110.722 116.832C110.722 118.321 109.51 119.533 108.021 119.533Z" fill="#F2F2F2"/>
<path d="M141.903 128.676H64.6046C63.1152 128.676 61.9033 127.464 61.9033 125.974C61.9033 124.485 63.1152 123.273 64.6046 123.273H141.903C143.393 123.273 144.605 124.485 144.605 125.974C144.605 127.464 143.393 128.676 141.903 128.676Z" fill="#F2F2F2"/>
<path d="M285.359 411.13C289.814 411.13 293.425 407.595 293.425 403.234C293.425 398.873 289.814 395.338 285.359 395.338C280.904 395.338 277.293 398.873 277.293 403.234C277.293 407.595 280.904 411.13 285.359 411.13Z" fill="#F2F2F2"/>
<path d="M350.021 400.533H306.605C305.115 400.533 303.903 399.321 303.903 397.832C303.903 396.342 305.115 395.13 306.605 395.13H350.021C351.51 395.13 352.722 396.342 352.722 397.832C352.722 399.321 351.51 400.533 350.021 400.533Z" fill="#F2F2F2"/>
<path d="M383.903 409.676H306.605C305.115 409.676 303.903 408.464 303.903 406.975C303.903 405.485 305.115 404.273 306.605 404.273H383.903C385.393 404.273 386.605 405.485 386.605 406.975C386.605 408.464 385.393 409.676 383.903 409.676Z" fill="#F2F2F2"/>
<path d="M188.405 155.97H186.405V250.97H188.405V155.97Z" fill="#E6E6E6"/>
<path d="M187.405 256.97C190.719 256.97 193.405 254.284 193.405 250.97C193.405 247.657 190.719 244.97 187.405 244.97C184.092 244.97 181.405 247.657 181.405 250.97C181.405 254.284 184.092 256.97 187.405 256.97Z" fill="#E6E6E6"/>
<path d="M278.405 325.97C281.719 325.97 284.405 323.284 284.405 319.97C284.405 316.657 281.719 313.97 278.405 313.97C275.092 313.97 272.405 316.657 272.405 319.97C272.405 323.284 275.092 325.97 278.405 325.97Z" fill="#E6E6E6"/>
<path d="M116.405 243.97C119.719 243.97 122.405 241.284 122.405 237.97C122.405 234.657 119.719 231.97 116.405 231.97C113.092 231.97 110.405 234.657 110.405 237.97C110.405 241.284 113.092 243.97 116.405 243.97Z" fill="#E6E6E6"/>
<path d="M114.188 237.98L81.375 238.973L81.4355 240.973L114.248 239.98L114.188 237.98Z" fill="#E6E6E6"/>
<path d="M327.216 342.94H277.46V319.97H279.46V340.94H327.216V342.94Z" fill="#E6E6E6"/>
<path d="M113.942 309.486C117.256 309.486 119.942 306.799 119.942 303.486C119.942 300.172 117.256 297.486 113.942 297.486C110.629 297.486 107.942 300.172 107.942 303.486C107.942 306.799 110.629 309.486 113.942 309.486Z" fill="#E6E6E6"/>
<path d="M162.161 326.455H112.405V303.486H114.405V324.455H162.161V326.455Z" fill="#E6E6E6"/>
<path d="M314.405 280.655H75.4229V282.655H314.405V280.655Z" fill="#E6E6E6"/>
</g>
<defs>
<clipPath id="clip0_20_2745">
<rect width="564.81" height="449.941" fill="white"/>
</clipPath>
</defs>
</svg>
