<svg width="121" height="121" viewBox="0 0 121 121" fill="none" xmlns="http://www.w3.org/2000/svg">
<path d="M95.7918 55.4583L55.4585 15.125L12.1002 58.4833C10.2526 60.3682 9.21777 62.9023 9.21777 65.5417C9.21777 68.181 10.2526 70.7151 12.1002 72.6L38.3168 98.8167C42.3502 102.85 48.4002 102.85 52.4335 98.8167L95.7918 55.4583Z" stroke="#6DABF3" stroke-width="5" stroke-linecap="round" stroke-linejoin="round"/>
<path d="M25.2085 10.0833L50.4168 35.2917" stroke="#6DABF3" stroke-width="5" stroke-linecap="round" stroke-linejoin="round"/>
<path d="M10.0835 65.5417H85.7085" stroke="#6DABF3" stroke-width="5" stroke-linecap="round" stroke-linejoin="round"/>
<path d="M110.917 100.833C110.917 103.508 109.854 106.072 107.963 107.963C106.072 109.854 103.508 110.917 100.833 110.917C98.1591 110.917 95.5943 109.854 93.7033 107.963C91.8124 106.072 90.75 103.508 90.75 100.833C90.75 92.7667 99.3208 88.7333 100.833 80.6667C102.346 88.7333 110.917 92.7667 110.917 100.833Z" stroke="#6DABF3" stroke-width="5" stroke-linecap="round" stroke-linejoin="round"/>
</svg>
