<svg width="619" height="466" viewBox="0 0 619 466" fill="none" xmlns="http://www.w3.org/2000/svg">
<g clip-path="url(#clip0_20_2825)">
<path d="M228.904 124.032C255.557 106.831 292.266 113.514 318.233 131.739C326.707 137.768 334.491 144.713 341.442 152.448C345.496 156.894 349.339 161.562 353.015 166.391C353.921 167.575 354.822 168.772 355.706 169.98C356.311 170.797 356.911 171.62 357.506 172.448C364.961 182.811 371.796 193.712 378.486 204.515C395.189 231.482 412.328 259.251 437.778 278.184C443.021 282.084 450.337 285.596 455.708 281.872C460.37 278.638 460.57 271.838 459.509 266.266C455.565 245.619 441.337 228.51 426.222 213.905C411.108 199.299 394.375 185.909 382.954 168.26C371.534 150.612 366.316 127.051 376.319 108.567C384.94 92.6387 403.489 83.7041 421.594 83.288C439.698 82.8758 457.287 89.913 472.604 99.5762C487.92 109.243 501.387 121.509 515.442 132.931C523.915 139.821 535.744 146.658 544.977 140.824C552.776 135.894 553.385 124.058 548.737 116.089C544.089 108.12 535.793 103.112 527.84 98.4418C503.148 83.936 478.455 69.4316 453.762 54.9284C446.187 50.4827 438.446 45.8948 432.854 39.1157C427.26 32.3405 424.155 22.8182 427.238 14.5909C430.28 6.48307 438.775 1.3347 447.37 0.260273C455.959 -0.811676 464.621 1.56988 472.656 4.7958C502.765 16.8878 573.662 95.9954 592.557 109.52C604.7 118.207 617.456 129.204 618.685 144.083C620.214 162.606 601.784 177.978 583.284 179.774C564.787 181.577 546.86 173.534 530.332 165.031C513.805 156.527 496.938 147.152 478.387 145.972C459.836 144.791 439.023 154.708 434.625 172.767C430.801 188.481 440.523 204.696 453.187 214.751C463.099 222.623 474.733 227.866 485.97 233.761C489.09 235.393 492.178 237.08 495.19 238.884C502.9 243.512 510.107 248.93 516.694 255.051C523.609 261.467 529.817 268.605 535.21 276.345C539.513 282.511 543.268 289.043 546.431 295.866C546.913 296.908 547.381 297.964 547.835 299.035C548.265 300.059 548.682 301.097 549.077 302.144C554.235 315.731 556.244 330.957 549.655 343.64C543.083 356.29 528.847 363.78 514.632 364.818C506.41 365.309 498.17 364.22 490.357 361.611C484.612 359.745 479.049 357.355 473.741 354.47C449.131 341.26 429.647 320.313 411.852 298.779C394.063 277.247 377.311 254.575 356.191 236.296C335.073 218.014 308.608 204.192 280.674 204.402C252.742 204.608 223.947 221.627 216.014 248.408C204.451 228.483 196.631 205.769 197.664 182.757C198.696 159.744 209.549 136.525 228.904 124.032Z" fill="#3F3D56"/>
<path d="M337.271 198.481C338.966 198.481 340.34 197.107 340.34 195.412C340.34 193.717 338.966 192.343 337.271 192.343C335.577 192.343 334.203 193.717 334.203 195.412C334.203 197.107 335.577 198.481 337.271 198.481Z" fill="#6C63FF"/>
<path d="M221.621 202.869C224.241 202.869 226.365 200.744 226.365 198.124C226.365 195.504 224.241 193.379 221.621 193.379C219 193.379 216.876 195.504 216.876 198.124C216.876 200.744 219 202.869 221.621 202.869Z" fill="#FF6584"/>
<path d="M564.552 160.887C565.52 160.887 566.305 160.102 566.305 159.134C566.305 158.166 565.52 157.381 564.552 157.381C563.584 157.381 562.799 158.166 562.799 159.134C562.799 160.102 563.584 160.887 564.552 160.887Z" fill="#FF6584"/>
<path d="M529.081 66.6676C530.049 66.6676 530.834 65.8828 530.834 64.9146C530.834 63.9464 530.049 63.1615 529.081 63.1615C528.113 63.1615 527.328 63.9464 527.328 64.9146C527.328 65.8828 528.113 66.6676 529.081 66.6676Z" fill="#FF6584"/>
<path d="M483.973 237.844C484.47 236.407 485.141 235.036 485.97 233.761C489.09 235.393 492.178 237.08 495.189 238.884C502.9 243.512 510.107 248.93 516.694 255.051C514.043 258.654 510.187 261.187 505.828 262.19C501.468 263.193 496.893 262.6 492.934 260.518C488.975 258.435 485.893 255.003 484.249 250.842C482.605 246.682 482.507 242.07 483.973 237.844Z" fill="#FF6584"/>
<path d="M260.395 180.791C261.385 180.791 262.188 179.988 262.188 178.998C262.188 178.008 261.385 177.205 260.395 177.205C259.405 177.205 258.602 178.008 258.602 178.998C258.602 179.988 259.405 180.791 260.395 180.791Z" fill="#F0F0F0"/>
<path d="M480.059 48.138C481.049 48.138 481.852 47.3353 481.852 46.3451C481.852 45.3549 481.049 44.5521 480.059 44.5521C479.069 44.5521 478.266 45.3549 478.266 46.3451C478.266 47.3353 479.069 48.138 480.059 48.138Z" fill="#F0F0F0"/>
<path d="M463.916 16.2013C464.906 16.2013 465.709 15.3986 465.709 14.4084C465.709 13.4182 464.906 12.6155 463.916 12.6155C462.926 12.6155 462.123 13.4182 462.123 14.4084C462.123 15.3986 462.926 16.2013 463.916 16.2013Z" fill="#F0F0F0"/>
<path d="M590.872 135.247C591.862 135.247 592.664 134.444 592.664 133.454C592.664 132.464 591.862 131.661 590.872 131.661C589.881 131.661 589.079 132.464 589.079 133.454C589.079 134.444 589.881 135.247 590.872 135.247Z" fill="#F0F0F0"/>
<path d="M496.692 137.823C497.683 137.823 498.485 137.02 498.485 136.03C498.485 135.04 497.683 134.237 496.692 134.237C495.702 134.237 494.899 135.04 494.899 136.03C494.899 137.02 495.702 137.823 496.692 137.823Z" fill="#F0F0F0"/>
<path d="M446.716 308.834C447.706 308.834 448.508 308.031 448.508 307.041C448.508 306.051 447.706 305.248 446.716 305.248C445.725 305.248 444.923 306.051 444.923 307.041C444.923 308.031 445.725 308.834 446.716 308.834Z" fill="#F0F0F0"/>
<path d="M390.375 140.649C391.365 140.649 392.168 139.847 392.168 138.856C392.168 137.866 391.365 137.064 390.375 137.064C389.385 137.064 388.582 137.866 388.582 138.856C388.582 139.847 389.385 140.649 390.375 140.649Z" fill="#F0F0F0"/>
<path d="M387.858 106.747C388.848 106.747 389.651 105.944 389.651 104.954C389.651 103.963 388.848 103.161 387.858 103.161C386.868 103.161 386.065 103.963 386.065 104.954C386.065 105.944 386.868 106.747 387.858 106.747Z" fill="#F0F0F0"/>
<path d="M486.144 314.667C489.1 306.111 494.047 298.379 500.579 292.111C501.441 291.285 502.328 290.487 503.239 289.718C512.268 282.08 523.432 277.41 535.21 276.345C539.513 282.511 543.268 289.043 546.431 295.866C546.913 296.908 547.381 297.964 547.835 299.035C548.265 300.059 548.682 301.097 549.077 302.144C554.235 315.731 556.244 330.957 549.655 343.64C543.083 356.29 528.847 363.78 514.632 364.818C506.41 365.309 498.17 364.22 490.357 361.611C486.126 354.105 483.638 345.742 483.08 337.144C483.009 336.061 482.974 334.978 482.964 333.89C482.918 327.348 483.993 320.846 486.144 314.667Z" fill="#6C63FF"/>
<path d="M462.414 303.307C465.294 295.009 476.067 290.125 492.756 289.547C496.095 289.43 499.768 290.819 503.239 289.718C520.082 284.377 535.362 287.867 547.835 299.035C548.266 300.059 548.682 301.097 549.077 302.144C548.911 302.082 548.744 302.024 548.577 301.966C531.722 296.117 514.991 292.703 500.579 292.111C497.916 292.003 494.739 290.462 492.842 292.077C477.607 305.042 467.302 299.61 464.804 304.137C461.155 310.749 467.629 321.051 479.343 330.973C480.502 331.955 481.709 332.927 482.964 333.89C482.974 334.978 483.009 336.061 483.08 337.144C481.19 335.747 479.4 334.334 477.708 332.905C464.966 322.113 459.536 311.601 462.414 303.307Z" fill="#E4E4E4"/>
<path d="M525.54 362.078C526.53 362.078 527.332 361.275 527.332 360.285C527.332 359.295 526.53 358.492 525.54 358.492C524.549 358.492 523.747 359.295 523.747 360.285C523.747 361.275 524.549 362.078 525.54 362.078Z" fill="#F0F0F0"/>
<path d="M493.818 339.018C494.809 339.018 495.611 338.215 495.611 337.225C495.611 336.235 494.809 335.432 493.818 335.432C492.828 335.432 492.025 336.235 492.025 337.225C492.025 338.215 492.828 339.018 493.818 339.018Z" fill="#F0F0F0"/>
<path d="M518.088 343.89C527.717 343.89 535.523 336.084 535.523 326.455C535.523 316.826 527.717 309.02 518.088 309.02C508.458 309.02 500.652 316.826 500.652 326.455C500.652 336.084 508.458 343.89 518.088 343.89Z" fill="#F0F0F0"/>
<path opacity="0.3" d="M244.154 133.707C248.23 133.899 256.659 135.923 265.794 138.539C274.923 141.159 284.825 144.354 294.601 147.515C311.714 153.044 328.827 158.57 345.938 164.095C348.291 164.854 350.65 165.619 353.015 166.391C353.921 167.575 354.822 168.772 355.706 169.98C353.627 169.245 351.539 168.534 349.458 167.856C340.565 164.967 332.849 163.061 324.219 160.432C310.937 156.389 296.926 151.08 283.336 146.136C269.748 141.188 254.158 135.863 244.154 133.707Z" fill="#F0F0F0"/>
<path opacity="0.3" d="M548.434 98.6079L586.925 162.506L550.605 97.3371C550.563 97.1301 550.472 96.9363 550.339 96.7716C550.207 96.6068 550.038 96.476 549.845 96.3899C549.652 96.3038 549.441 96.265 549.23 96.2766C549.019 96.2882 548.814 96.3499 548.632 96.4566C548.45 96.5633 548.296 96.7119 548.182 96.8901C548.069 97.0683 548 97.271 547.98 97.4813C547.961 97.6917 547.992 97.9036 548.071 98.0995C548.15 98.2954 548.274 98.4697 548.434 98.6079Z" fill="#F0F0F0"/>
<path d="M529.661 287.184C530.651 287.184 531.454 286.381 531.454 285.391C531.454 284.401 530.651 283.598 529.661 283.598C528.671 283.598 527.868 284.401 527.868 285.391C527.868 286.381 528.671 287.184 529.661 287.184Z" fill="#F0F0F0"/>
<path d="M215.183 281.266C221.531 281.266 226.677 276.12 226.677 269.772C226.677 263.424 221.531 258.278 215.183 258.278C208.835 258.278 203.689 263.424 203.689 269.772C203.689 276.12 208.835 281.266 215.183 281.266Z" fill="#6C63FF"/>
<path d="M208.373 263.461C207.214 263.144 206.139 262.577 205.223 261.799C204.307 261.022 203.573 260.053 203.072 258.961C202.571 257.869 202.316 256.68 202.324 255.478C202.332 254.277 202.603 253.092 203.119 252.007L182.307 231.517L197.15 228.35L214.638 248.293C216.404 249.28 217.746 250.881 218.41 252.791C219.075 254.702 219.015 256.79 218.243 258.66C217.471 260.529 216.04 262.051 214.221 262.936C212.402 263.821 210.321 264.008 208.373 263.461Z" fill="#A0616A"/>
<path d="M108.862 103.998L120.469 111.648L134.055 114.83C134.055 114.83 144.83 191.84 150.125 196.459C155.419 201.078 150.958 201.516 152.393 207.888C153.828 214.26 157.148 227.295 157.148 227.295C124.895 247.287 96.0814 249.728 71.4981 230.581C71.1143 229.319 71.1733 227.964 71.6652 226.74C72.1572 225.516 73.0526 224.497 74.203 223.852C78.3596 221.27 69.3438 211.155 72.7465 209.129C76.1491 207.103 70.1364 191.95 70.1364 191.95L71.1856 159.408L68.2644 154.417L72.3795 122.377L82.9875 117.663L86.6196 106.896L108.862 103.998Z" fill="#6C63FF"/>
<path d="M113.891 106.699L133.029 113.072C133.029 113.072 154.2 110.837 155.058 142.352C155.916 173.868 151.971 190.78 151.971 190.78C151.971 190.78 196.01 279.341 148.305 253.184L134.365 198.293L119.997 112.087L113.891 106.699Z" fill="#2F2E41"/>
<path d="M133.084 176.375L143.012 175.004C143.012 175.004 143.97 189.971 148.719 192.239C153.467 194.508 151.866 194.881 152.426 197.282C152.986 199.683 148.204 206.336 151.965 207.991C155.727 209.646 188.603 251.094 188.603 251.094L207.999 233.134C206.666 229.522 200.251 232.461 199.849 228.632C199.343 222.843 189.19 207.027 187.029 204.999C184.868 202.972 185.723 199.397 184.603 194.594C183.483 189.792 184.26 194.245 182.394 186.241C180.527 178.237 155.233 137.454 154.353 130.064C153.474 122.673 143.177 118.323 143.177 118.323L135.173 120.19L133.084 176.375Z" fill="#2F2E41"/>
<path d="M49.2673 442.522L60.9511 445.59L78.3453 401.983L61.1013 397.455L49.2673 442.522Z" fill="#A0616A"/>
<path d="M45.655 454.602L81.5842 464.037L81.7036 463.583C82.6774 459.874 82.1381 455.93 80.2043 452.619C78.2705 449.307 75.1006 446.9 71.3919 445.926L71.391 445.925L66.1358 439.223L52.5831 440.987L49.4467 440.163L45.655 454.602Z" fill="#2F2E41"/>
<path d="M109.164 451.263L121.242 451.262L126.989 404.667L109.161 404.669L109.164 451.263Z" fill="#A0616A"/>
<path d="M108.737 463.865L145.884 463.863V463.393C145.884 459.559 144.361 455.881 141.649 453.17C138.938 450.458 135.26 448.935 131.426 448.935H131.425L124.639 443.787L111.979 448.936L108.737 448.936L108.737 463.865Z" fill="#2F2E41"/>
<path d="M78.9495 228.29C76.0314 231.938 77.4905 244.34 77.4905 244.34C77.4905 244.34 72.3838 284.463 74.5724 288.111C76.7609 291.758 73.1133 294.676 70.9248 299.783C68.7362 304.89 66.5477 317.291 66.5477 317.291C54.1459 327.505 54.8754 374.194 54.8754 374.194L50.4983 415.777C51.9573 420.154 72.3839 420.883 75.302 420.154C78.22 419.424 106.671 316.562 106.671 316.562C106.671 316.562 105.212 415.777 105.212 420.154C105.212 424.531 124.909 422.342 129.286 422.342C133.663 422.342 161.385 243.61 161.385 243.61V233.397L157.738 228.29C157.738 228.29 81.8676 224.643 78.9495 228.29Z" fill="#2F2E41"/>
<path d="M85.8739 108.854L67.9589 120.268L59.2937 127.532L70.7878 200.807C70.7878 200.807 53.3247 267.413 80.8452 263.306C108.366 259.2 106.823 199.343 106.823 199.343L85.8739 108.854Z" fill="#2F2E41"/>
<path d="M109.846 212.945C108.812 213.557 107.656 213.935 106.46 214.053C105.265 214.17 104.058 214.024 102.925 213.624C101.791 213.225 100.76 212.582 99.902 211.74C99.0443 210.899 98.3816 209.88 97.9604 208.754L68.7627 209.459L76.8096 196.591L103.303 197.894C105.24 197.312 107.323 197.461 109.159 198.312C110.994 199.163 112.453 200.658 113.259 202.513C114.066 204.369 114.164 206.455 113.534 208.378C112.905 210.3 111.593 211.925 109.846 212.945Z" fill="#A0616A"/>
<path d="M95.2789 98.9455C108.022 98.9455 118.352 88.6151 118.352 75.872C118.352 63.1288 108.022 52.7984 95.2789 52.7984C82.5357 52.7984 72.2053 63.1288 72.2053 75.872C72.2053 88.6151 82.5357 98.9455 95.2789 98.9455Z" fill="#A0616A"/>
<path d="M69.1068 60.7111C71.6977 56.7028 76.5597 54.0314 81.273 54.782C81.7117 51.774 82.9673 48.944 84.903 46.6002C86.8387 44.2564 89.3803 42.4885 92.2512 41.4891C95.122 40.4898 98.212 40.2972 101.185 40.9324C104.157 41.5675 106.899 43.0061 109.111 45.0915C109.838 44.5794 110.685 44.2637 111.57 44.1752C112.456 44.0866 113.349 44.228 114.163 44.5858C115.785 45.3235 117.196 46.4563 118.268 47.8805C120.972 51.2534 122.712 55.2964 123.301 59.5794C123.89 63.8623 123.306 68.2248 121.613 72.2026C122.189 70.1085 120.09 68.1384 117.97 67.6685C115.85 67.1986 113.625 67.6432 111.475 67.3372C108.719 66.945 106.242 65.3463 103.482 64.9865C101.162 64.6841 98.829 65.2789 96.5668 65.8751C94.3046 66.4712 91.9778 67.0791 89.6547 66.8033C87.3314 66.5274 84.339 75.3316 84.3791 81.5326C84.3867 82.7078 84.1447 84.2166 82.9962 84.4659C81.5819 84.773 80.7624 82.821 79.4162 82.2891C78.7958 82.1113 78.1306 82.1813 77.5608 82.4843C76.991 82.7873 76.561 83.2997 76.3616 83.9135C76.1919 84.5375 76.1738 85.1929 76.3086 85.8254C76.4434 86.4578 76.7274 87.0489 77.1368 87.5494C77.9642 88.5417 78.9465 89.3938 80.0457 90.0728L79.4913 90.5339C78.5691 91.7522 76.6562 91.805 75.3269 91.0513C74.0559 90.1904 73.0265 89.0184 72.3369 87.6469C69.8778 83.5566 67.7206 79.1985 66.8528 74.5054C65.9849 69.8124 66.5161 64.7194 69.1068 60.7111Z" fill="#2F2E41"/>
<path d="M77.2533 129.687L66.8849 120.802C66.8849 120.802 54.7786 124.579 52.7259 132.521C36.5685 153.181 27.8669 177.309 25.5298 204.399C46.6242 212.366 72.4539 215.192 100.242 215.893L94.4945 194.342L54.9835 187.158L77.2533 129.687Z" fill="#2F2E41"/>
<path d="M40.5165 453.706L34.9778 444.806L33.8715 449.892C33.6775 450.783 33.4836 451.688 33.304 452.586C31.7307 451.242 30.0569 450 28.4191 448.807C23.3904 445.158 18.3641 441.504 13.3401 437.845L14.9133 446.968C15.8832 452.586 16.8962 458.319 19.2955 463.455C19.5614 464.037 19.8487 464.612 20.1577 465.172H43.5339C43.7219 464.651 43.852 464.112 43.9218 463.563C43.9276 463.527 43.93 463.491 43.9288 463.455C44.2954 459.971 42.37 456.688 40.5165 453.706Z" fill="#F2F2F2"/>
<path d="M247.102 443.481L257.58 426.642L259.673 436.265C260.04 437.95 260.407 439.662 260.747 441.361C263.723 438.819 266.89 436.468 269.988 434.212C279.502 427.308 289.011 420.395 298.516 413.473L295.539 430.733C293.704 441.361 291.788 452.206 287.249 461.924C286.746 463.025 286.202 464.112 285.618 465.172H241.393C241.038 464.187 240.792 463.166 240.659 462.128C240.648 462.06 240.644 461.992 240.646 461.924C239.953 455.332 243.595 449.121 247.102 443.481Z" fill="#F2F2F2"/>
<path d="M238.881 465.531H190.766C188.574 465.529 186.472 464.657 184.921 463.106C183.371 461.556 182.499 459.454 182.497 457.261V288.458C182.499 286.266 183.371 284.164 184.921 282.613C186.472 281.063 188.574 280.191 190.766 280.188H238.881C241.074 280.191 243.176 281.063 244.726 282.613C246.277 284.164 247.149 286.266 247.151 288.458V457.261C247.149 459.454 246.277 461.556 244.726 463.106C243.176 464.657 241.074 465.529 238.881 465.531Z" fill="#F2F2F2"/>
<path d="M227.52 284.499H202.846C202.022 284.498 201.232 284.17 200.649 283.587C200.066 283.004 199.739 282.214 199.738 281.39V272.521C199.739 271.697 200.066 270.907 200.649 270.324C201.232 269.742 202.022 269.414 202.846 269.413H227.52C228.344 269.414 229.134 269.742 229.717 270.324C230.3 270.907 230.627 271.697 230.628 272.521V281.39C230.627 282.214 230.3 283.004 229.717 283.587C229.134 284.17 228.344 284.498 227.52 284.499Z" fill="#3F3D56"/>
<path d="M298.086 465.779L0.855334 466C0.628906 465.999 0.411981 465.909 0.252104 465.749C0.0922266 465.588 0.00244141 465.371 0.00244141 465.145C0.00244141 464.918 0.0922266 464.701 0.252104 464.541C0.411981 464.38 0.628906 464.29 0.855334 464.289L298.086 464.068C298.313 464.069 298.529 464.16 298.689 464.32C298.849 464.48 298.939 464.697 298.939 464.924C298.939 465.15 298.849 465.367 298.689 465.528C298.529 465.688 298.313 465.779 298.086 465.779Z" fill="#CACACA"/>
</g>
<defs>
<clipPath id="clip0_20_2825">
<rect width="618.774" height="466" fill="white"/>
</clipPath>
</defs>
</svg>
