<svg width="121" height="121" viewBox="0 0 121 121" fill="none" xmlns="http://www.w3.org/2000/svg">
<path d="M90.75 100.833V30.25C90.75 27.5757 89.6876 25.011 87.7967 23.12C85.9057 21.229 83.3409 20.1667 80.6667 20.1667H40.3333C37.6591 20.1667 35.0943 21.229 33.2033 23.12C31.3123 25.011 30.25 27.5757 30.25 30.25V100.833" stroke="#E75A5A" stroke-width="5.08" stroke-linecap="round" stroke-linejoin="round"/>
<path d="M10.0835 100.833H110.917" stroke="#E75A5A" stroke-width="5.08" stroke-linecap="round" stroke-linejoin="round"/>
<path d="M57.5 57.5C58.163 57.5 58.7989 57.2366 59.2678 56.7678C59.7366 56.2989 60 55.663 60 55C60 53.62 59.5 53 59 52C57.928 49.857 58.776 47.946 61 46C61.5 48.5 63 50.9 65 52.5C67 54.1 68 56 68 58C68 58.9193 67.8189 59.8295 67.4672 60.6788C67.1154 61.5281 66.5998 62.2997 65.9497 62.9497C65.2997 63.5998 64.5281 64.1154 63.6788 64.4672C62.8295 64.8189 61.9193 65 61 65C60.0807 65 59.1705 64.8189 58.3212 64.4672C57.4719 64.1154 56.7003 63.5998 56.0503 62.9497C55.4002 62.2997 54.8846 61.5281 54.5328 60.6788C54.1811 59.8295 54 58.9193 54 58C54 56.847 54.433 55.706 55 55C55 55.663 55.2634 56.2989 55.7322 56.7678C56.2011 57.2366 56.837 57.5 57.5 57.5Z" stroke="#E75A5A" stroke-width="3" stroke-linecap="round" stroke-linejoin="round"/>
</svg>
