<svg width="121" height="121" viewBox="0 0 121 121" fill="none" xmlns="http://www.w3.org/2000/svg">
<path d="M65.5415 20.1667H80.6665C83.3408 20.1667 85.9055 21.229 87.7965 23.12C89.6875 25.011 90.7498 27.5757 90.7498 30.25V100.833" stroke="#868DF6" stroke-width="4.41667" stroke-linecap="round" stroke-linejoin="round"/>
<path d="M10.0835 100.833H25.2085" stroke="#868DF6" stroke-width="4.41667" stroke-linecap="round" stroke-linejoin="round"/>
<path d="M65.5415 100.833H110.917" stroke="#868DF6" stroke-width="4.41667" stroke-linecap="round" stroke-linejoin="round"/>
<path d="M50.4165 60.5V60.5495" stroke="#868DF6" stroke-width="4.41667" stroke-linecap="round" stroke-linejoin="round"/>
<path d="M65.5418 23.0001V104.458C65.5416 105.224 65.3669 105.98 65.0311 106.668C64.6952 107.356 64.207 107.959 63.6034 108.43C62.9999 108.902 62.2968 109.229 61.5477 109.389C60.7986 109.548 60.0231 109.534 59.2801 109.349L25.2085 100.833V28.0418C25.2088 25.7933 25.9607 23.6094 27.3447 21.8372C28.7286 20.065 30.6652 18.8062 32.8466 18.261L53.0133 13.2193C54.4993 12.8479 56.0505 12.8198 57.5489 13.1374C59.0474 13.455 60.4538 14.1097 61.6615 15.052C62.8691 15.9943 63.8462 17.1993 64.5185 18.5756C65.1909 19.952 65.5408 21.4684 65.5418 23.0001Z" stroke="#868DF6" stroke-width="4.41667" stroke-linecap="round" stroke-linejoin="round"/>
</svg>
